<svg width="64" height="64" viewBox="0 0 64 64" fill="none" xmlns="http://www.w3.org/2000/svg">
<path d="M52.8052 32.8146C51.952 32.5507 50.9356 32.3025 49.8263 32.101C51.1374 31.6896 52.3166 31.24 53.2474 30.7742C59.2131 27.8653 55.2952 18.3317 48.4221 21.3882C44.5124 23.1414 38.1665 27.6253 35.8863 31.9774C35.5838 32.5592 35.6224 33.2574 35.9949 33.8006C38.811 37.912 46.0255 41.9306 50.2376 43.055C56.6301 44.8157 59.9894 35.0646 52.8055 32.815L52.8052 32.8146ZM48.8877 23.715L52.7899 25.22L51.2849 29.1222L47.3827 27.6172L48.8877 23.715ZM49.8498 40.5177L47.9105 36.8174L51.6188 34.8702L53.5581 38.5784L49.8498 40.5177Z" fill="#ABB3C7"/>
<path d="M28.051 30.2546C25.2349 26.1431 18.0204 22.1246 13.8156 21.0002C7.4156 19.2391 4.05652 28.9902 11.2402 31.2402C12.0935 31.5041 13.1099 31.752 14.2192 31.9538C12.9081 32.3648 11.7288 32.8148 10.7981 33.2806C4.83238 36.1895 8.75028 45.7231 15.6309 42.6666C19.5331 40.9134 25.8791 36.4216 28.1594 32.0774C28.4615 31.4956 28.4229 30.7895 28.0505 30.2545L28.051 30.2546ZM12.4277 29.1839L10.4884 25.476L14.1967 23.5367L16.136 27.2371L12.4277 29.1839ZM15.1659 40.3391L11.2562 38.8341L12.7612 34.9319L16.6634 36.429L15.1659 40.3391Z" fill="#ABB3C7"/>
<path d="M42.6667 48.4233C40.9135 44.5136 36.4217 38.1751 32.0702 35.8875C31.4884 35.585 30.7823 35.6236 30.2473 35.9961C26.1358 38.8197 22.1173 46.0267 21.0002 50.2388C19.2391 56.6388 28.9906 59.9979 31.232 52.8146C31.4959 51.9535 31.7441 50.9371 31.9534 49.8199C32.357 51.1389 32.8145 52.3102 33.2798 53.2488C36.1812 59.2142 45.7233 55.3042 42.6668 48.4235L42.6667 48.4233ZM25.4681 53.5586L23.5288 49.8583L27.2371 47.9111L29.1764 51.6194L25.4681 53.5586ZM38.835 52.7908L34.9328 51.2933L36.4299 47.3836L40.3396 48.8886L38.835 52.7908Z" fill="#ABB3C7"/>
<path d="M32.8145 11.2409C32.5506 12.102 32.3023 13.1181 32.0931 14.2352C31.6895 12.9166 31.232 11.7374 30.7666 10.7988C27.8652 4.83344 18.3232 8.75097 21.3879 15.632C23.1411 19.5416 27.6329 25.8802 31.9771 28.1604C32.5589 28.4629 33.2571 28.424 33.8 28.0519C37.9115 25.2436 41.93 18.0295 43.0544 13.8164C44.808 7.4157 35.0565 4.05643 32.8144 11.2403L32.8145 11.2409ZM27.6169 16.6713L23.7148 15.1663L25.2119 11.2642L29.1216 12.7613L27.6169 16.6713ZM36.8092 16.136L34.8699 12.4356L38.5781 10.4884L40.5174 14.1967L36.8092 16.136Z" fill="#ABB3C7"/>
</svg>
