<svg width="20" height="20" viewBox="0 0 20 20" fill="none" xmlns="http://www.w3.org/2000/svg">
<path d="M17.0829 13.3333V15.4167C17.0829 17.025 15.7746 18.3333 14.1663 18.3333H5.83293C4.22459 18.3333 2.91626 17.025 2.91626 15.4167V14.875C2.91626 13.5667 3.98293 12.5 5.29126 12.5H16.2496C16.7079 12.5 17.0829 12.875 17.0829 13.3333Z" fill="#FF8700"/>
<path d="M12.9163 1.66663H7.08293C3.74959 1.66663 2.91626 2.49996 2.91626 5.83329V12.15C3.54959 11.5916 4.38293 11.25 5.29126 11.25H16.2496C16.7079 11.25 17.0829 10.875 17.0829 10.4166V5.83329C17.0829 2.49996 16.2496 1.66663 12.9163 1.66663ZM10.8329 8.95829H6.66626C6.32459 8.95829 6.04126 8.67496 6.04126 8.33329C6.04126 7.99163 6.32459 7.70829 6.66626 7.70829H10.8329C11.1746 7.70829 11.4579 7.99163 11.4579 8.33329C11.4579 8.67496 11.1746 8.95829 10.8329 8.95829ZM13.3329 6.04163H6.66626C6.32459 6.04163 6.04126 5.75829 6.04126 5.41663C6.04126 5.07496 6.32459 4.79163 6.66626 4.79163H13.3329C13.6746 4.79163 13.9579 5.07496 13.9579 5.41663C13.9579 5.75829 13.6746 6.04163 13.3329 6.04163Z" fill="#FF8700"/>
</svg>
