<svg width="32" height="32" viewBox="0 0 32 32" fill="none" xmlns="http://www.w3.org/2000/svg">
<g clip-path="url(#clip0_3187_66)">
<path d="M0 8.05246V11.5556H5.00267L0 8.05246ZM4.14578 27.5556H11.5556V22.3671L4.14578 27.5556ZM20.4444 22.368V27.5556H27.8533L20.4444 22.368ZM0 20.4445V23.9476L5.00444 20.4445H0ZM27.8551 4.44446H20.4444V9.6329L27.8551 4.44446ZM32 23.9485V20.4445H26.9947L32 23.9485ZM32 11.5556V8.05246L26.9964 11.5556H32ZM11.5556 4.44446H4.14578L11.5556 9.6329V4.44446Z" fill="#00247D"/>
<path d="M22.3466 20.4445L30.9795 26.4898C31.4011 26.0555 31.7041 25.5202 31.8595 24.9351L25.4462 20.4445H22.3466ZM11.5555 20.4445H9.65242L1.02042 26.4889C1.48353 26.96 2.0773 27.2969 2.74308 27.4534L11.5555 21.2827V20.4445ZM20.4444 11.5556H22.3475L30.9795 5.51114C30.5085 5.03316 29.9114 4.69872 29.2577 4.54669L20.4444 10.7174V11.5556ZM9.65242 11.5556L1.02042 5.51114C0.59904 5.94578 0.295806 6.48095 0.139526 7.0658L6.55286 11.5556H9.65242Z" fill="#CF1B2B"/>
<path d="M32 18.6667H18.6667V27.5556H20.4444V22.368L27.8533 27.5556H28.4444C28.9167 27.5556 29.3842 27.4614 29.8195 27.2784C30.2548 27.0954 30.6492 26.8273 30.9796 26.4898L22.3467 20.4445H25.4462L31.8596 24.9351C31.9422 24.6356 32 24.3253 32 24V23.9485L26.9947 20.4445H32V18.6667ZM0 18.6667V20.4445H5.00444L0 23.9476V24C0 24.9698 0.390222 25.8471 1.02044 26.4889L9.65244 20.4445H11.5556V21.2827L2.74311 27.4525C3.00444 27.5147 3.27467 27.5556 3.55556 27.5556H4.14578L11.5556 22.3671V27.5556H13.3333V18.6667H0ZM32 8.00001C32.0005 7.06844 31.6339 6.17419 30.9796 5.51112L22.3476 11.5556H20.4444V10.7173L29.2578 4.54668C28.9915 4.48137 28.7186 4.44707 28.4444 4.44446H27.8551L20.4444 9.6329V4.44446H18.6667V13.3333H32V11.5556H26.9964L32 8.05246V8.00001ZM11.5556 4.44446V9.6329L4.14578 4.44446H3.55556C3.08322 4.44425 2.61561 4.53851 2.18025 4.7217C1.74488 4.90488 1.35055 5.17329 1.02044 5.51112L9.65244 11.5556H6.55289L0.139556 7.06579C0.0513602 7.36953 0.00442081 7.68376 0 8.00001L0 8.05246L5.00267 11.5556H0V13.3333H13.3333V4.44446H11.5556Z" fill="#EEEEEE"/>
<path d="M18.6667 13.3333V4.44446H13.3333V13.3333H0V18.6667H13.3333V27.5556H18.6667V18.6667H32V13.3333H18.6667Z" fill="#CF1B2B"/>
</g>
<defs>
<clipPath id="clip0_3187_66">
<rect width="32" height="32" fill="white"/>
</clipPath>
</defs>
</svg>
