<svg width="32" height="32" viewBox="0 0 32 32" fill="none" xmlns="http://www.w3.org/2000/svg">
<path d="M31 16C31 7.71578 24.2842 1 16 1C7.71578 1 1 7.71566 1 16C1 23.4869 6.48531 29.6925 13.6562 30.8178V20.3359H9.84766V16H13.6562V12.6953C13.6562 8.93594 15.8957 6.85938 19.3219 6.85938C20.9631 6.85938 22.6797 7.15234 22.6797 7.15234V10.8438H20.7883C18.9248 10.8438 18.3438 12 18.3438 13.1863V16H22.5039L21.8389 20.3359H18.3438V30.8178C25.5147 29.6925 31 23.487 31 16Z" fill="#1877F2"/>
<path d="M21.8389 20.3359L22.5039 16H18.3438V13.1863C18.3438 11.9999 18.9249 10.8438 20.7883 10.8438H22.6797V7.15234C22.6797 7.15234 20.9631 6.85938 19.3219 6.85938C15.8957 6.85938 13.6562 8.93594 13.6562 12.6953V16H9.84766V20.3359H13.6562V30.8178C14.4316 30.9393 15.2152 31.0002 16 31C16.7848 31.0002 17.5684 30.9393 18.3438 30.8178V20.3359H21.8389Z" fill="white"/>
</svg>
