<svg width="32" height="32" viewBox="0 0 32 32" fill="none" xmlns="http://www.w3.org/2000/svg">
<g clip-path="url(#clip0_3187_111)">
<path d="M32 24C32 24.943 31.6254 25.8474 30.9586 26.5142C30.2918 27.181 29.3875 27.5556 28.4445 27.5556H21.3334V4.44446H28.4445C29.3875 4.44446 30.2918 4.81906 30.9586 5.48586C31.6254 6.15265 32 7.05702 32 8.00001V24Z" fill="#ED2939"/>
<path d="M3.55556 4.44446C2.61256 4.44446 1.70819 4.81906 1.0414 5.48586C0.374602 6.15265 0 7.05702 0 8.00001L0 24C0 24.943 0.374602 25.8474 1.0414 26.5142C1.70819 27.181 2.61256 27.5556 3.55556 27.5556H10.6667V4.44446H3.55556Z" fill="#002495"/>
<path d="M10.6666 4.44446H21.3333V27.5556H10.6666V4.44446Z" fill="#EEEEEE"/>
</g>
<defs>
<clipPath id="clip0_3187_111">
<rect width="32" height="32" fill="white"/>
</clipPath>
</defs>
</svg>
