<svg width="64" height="64" viewBox="0 0 64 64" fill="none" xmlns="http://www.w3.org/2000/svg">
<path d="M56.0729 31.2565H48.4705L53.1562 23.5997C53.3733 23.235 53.2648 22.754 52.8923 22.529C52.5276 22.304 52.0544 22.4204 51.8294 22.785L46.6472 31.2564H41.3644L32.808 22.7075V17.4011L41.2636 12.2268C41.6361 12.0018 41.7447 11.5211 41.5276 11.1564C41.3026 10.7918 40.8215 10.6753 40.4569 10.9003L32.8079 15.5861V7.97573C32.8079 7.5493 32.459 7.20001 32.0322 7.20001C31.6054 7.20001 31.2565 7.5493 31.2565 7.97573V15.5861L23.5997 10.9003C23.2351 10.6753 22.754 10.7918 22.529 11.1564C22.3119 11.5211 22.4204 12.0018 22.7929 12.2268L31.2565 17.4089V22.8468L22.855 31.2564H16.8739L11.6993 22.785C11.4743 22.4204 10.9932 22.304 10.6285 22.529C10.2639 22.754 10.1475 23.2347 10.3725 23.5997L15.0582 31.2565H7.97567C7.54888 31.2565 7.19995 31.6054 7.19995 32.0322C7.19995 32.459 7.54888 32.8079 7.97567 32.8079H15.0507L10.3728 40.4568C9.83462 41.329 11.1614 42.1407 11.6993 41.2636L16.8736 32.8079H22.8547L31.2561 41.2019V47.1751L22.7929 52.3569C22.4205 52.5819 22.3119 53.063 22.529 53.4276C22.754 53.7923 23.2351 53.9083 23.5997 53.6833L31.2565 48.998V56.073C31.2565 56.5076 31.6054 56.8487 32.0322 56.8487C32.459 56.8487 32.808 56.5073 32.808 56.073V48.998L40.4569 53.6833C40.7858 53.889 41.2879 53.8055 41.5276 53.4276C41.7447 53.063 41.6362 52.5819 41.2637 52.3569L32.808 47.1826V41.349L41.3569 32.8079H46.6555L51.8298 41.2636C52.0512 41.6247 52.5241 41.7497 52.8926 41.5193C53.2651 41.2947 53.3737 40.8211 53.1566 40.4565L48.4705 32.8079H56.073C56.5072 32.8079 56.8487 32.459 56.8487 32.0322C56.8487 31.6054 56.5072 31.2565 56.073 31.2565L56.0729 31.2565Z" fill="#ABB3C7"/>
<path d="M24.5255 21.3575C24.5255 23.1072 23.1073 24.5253 21.3577 24.5253C19.6084 24.5253 18.1902 23.1071 18.1902 21.3575C18.1902 19.6082 19.6084 18.1897 21.3577 18.1897C23.1074 18.1897 24.5255 19.6083 24.5255 21.3575Z" fill="#ABB3C7"/>
<path d="M45.8586 21.3575C45.8586 23.1072 44.4403 24.5253 42.691 24.5253C40.9413 24.5253 39.5232 23.1071 39.5232 21.3575C39.5232 19.6082 40.9414 18.1899 42.691 18.1899C44.4403 18.1899 45.8586 19.6082 45.8586 21.3575Z" fill="#ABB3C7"/>
<path d="M24.5255 42.6914C24.5255 44.4407 23.1073 45.859 21.3577 45.859C19.6084 45.859 18.1902 44.4407 18.1902 42.6914C18.1902 40.9418 19.6084 39.5236 21.3577 39.5236C23.1074 39.5236 24.5255 40.9419 24.5255 42.6914Z" fill="#ABB3C7"/>
<path d="M45.8586 42.6905C45.8586 44.4402 44.4403 45.8583 42.691 45.8583C40.9413 45.8583 39.5232 44.4401 39.5232 42.6905C39.5232 40.9412 40.9414 39.5229 42.691 39.5229C44.4403 39.5229 45.8586 40.9412 45.8586 42.6905Z" fill="#ABB3C7"/>
</svg>
