<svg width="64" height="64" viewBox="0 0 64 64" fill="none" xmlns="http://www.w3.org/2000/svg">
<path d="M56.0966 7.20057H7.9521C7.53853 7.20057 7.19995 7.53164 7.19995 7.95272V56.0963C7.19995 56.5102 7.53852 56.8488 7.9521 56.8488H56.0956C56.5096 56.8488 56.8481 56.5102 56.8481 56.0966V7.95216C56.8481 7.53108 56.5096 7.20001 56.096 7.20001L56.0966 7.20057ZM55.3441 55.3441H8.70451V8.70457H55.3441V55.3441Z" fill="#ABB3C7"/>
<path d="M41.6984 21.591H22.3503C21.9292 21.591 21.5981 21.9296 21.5981 22.3432V41.6986C21.5981 42.1122 21.9292 42.4508 22.3503 42.4508H41.6984C42.1195 42.4508 42.4506 42.1122 42.4506 41.6986V22.3432C42.4506 21.9296 42.1195 21.591 41.6984 21.591ZM38.1552 32.5515L32.5584 38.1558C32.408 38.2986 32.2198 38.374 32.0241 38.374C31.8284 38.374 31.6405 38.2986 31.4898 38.1558L25.893 32.5515C25.5998 32.2583 25.5998 31.7843 25.893 31.4907L31.4898 25.8864C31.783 25.5932 32.2648 25.5932 32.5581 25.8864L38.1549 31.4907C38.4563 31.7843 38.4563 32.2582 38.1552 32.5515H38.1552Z" fill="#ABB3C7"/>
<path d="M23.4566 11.2477H18.898C18.4845 11.2477 18.1459 11.5863 18.1459 11.9999V16.5584C18.1459 16.972 18.4844 17.3105 18.898 17.3105H23.4566C23.8701 17.3105 24.2087 16.972 24.2087 16.5584V11.9999C24.2087 11.5863 23.8705 11.2477 23.4566 11.2477ZM22.7044 15.8062H19.6501V12.752H22.7044V15.8062Z" fill="#ABB3C7"/>
<path d="M30.6858 11.2477H26.1347C25.7136 11.2477 25.3826 11.5863 25.3826 11.9999V16.5584C25.3826 16.972 25.7136 17.3105 26.1347 17.3105H30.6858C31.0993 17.3105 31.4379 16.972 31.4379 16.5584V11.9999C31.4379 11.5863 31.0993 11.2477 30.6858 11.2477ZM29.9336 15.8062H26.8868V12.752H29.9336V15.8062Z" fill="#ABB3C7"/>
<path d="M37.9224 11.2477H33.3638C32.9499 11.2477 32.6117 11.5863 32.6117 11.9999V16.5584C32.6117 16.972 32.9503 17.3105 33.3638 17.3105H37.9224C38.3359 17.3105 38.6745 16.972 38.6745 16.5584V11.9999C38.6745 11.5863 38.336 11.2477 37.9224 11.2477ZM37.1699 15.8062H34.1156V12.752H37.1699V15.8062Z" fill="#ABB3C7"/>
<path d="M45.1507 11.2477H40.5997C40.1786 11.2477 39.8475 11.5863 39.8475 11.9999V16.5584C39.8475 16.972 40.1786 17.3105 40.5997 17.3105H45.1507C45.5643 17.3105 45.9029 16.972 45.9029 16.5584V11.9999C45.9029 11.5863 45.5643 11.2477 45.1507 11.2477ZM44.3986 15.8062H41.3518V12.752H44.3986V15.8062Z" fill="#ABB3C7"/>
<path d="M23.4566 47.4086H18.898C18.4845 47.4086 18.1459 47.7472 18.1459 48.1608V52.7193C18.1459 53.1329 18.4844 53.4715 18.898 53.4715H23.4566C23.8701 53.4715 24.2087 53.1329 24.2087 52.7193V48.1608C24.2087 47.7472 23.8705 47.4086 23.4566 47.4086ZM22.7044 51.9672H19.6501V48.9129H22.7044V51.9672Z" fill="#ABB3C7"/>
<path d="M30.6858 47.4086H26.1347C25.7136 47.4086 25.3826 47.7472 25.3826 48.1608V52.7193C25.3826 53.1329 25.7136 53.4715 26.1347 53.4715H30.6858C31.0993 53.4715 31.4379 53.1329 31.4379 52.7193V48.1608C31.4379 47.7472 31.0993 47.4086 30.6858 47.4086ZM29.9336 51.9672H26.8868V48.9129H29.9336V51.9672Z" fill="#ABB3C7"/>
<path d="M37.9224 47.4086H33.3638C32.9499 47.4086 32.6117 47.7472 32.6117 48.1608V52.7193C32.6117 53.1329 32.9503 53.4715 33.3638 53.4715H37.9224C38.3359 53.4715 38.6745 53.1329 38.6745 52.7193V48.1608C38.6745 47.7472 38.336 47.4086 37.9224 47.4086ZM37.1699 51.9672H34.1156V48.9129H37.1699V51.9672Z" fill="#ABB3C7"/>
<path d="M45.1507 47.4086H40.5997C40.1786 47.4086 39.8475 47.7472 39.8475 48.1608V52.7193C39.8475 53.1329 40.1786 53.4715 40.5997 53.4715H45.1507C45.5643 53.4715 45.9029 53.1329 45.9029 52.7193V48.1608C45.9029 47.7472 45.5643 47.4086 45.1507 47.4086ZM44.3986 51.9672H41.3518V48.9129H44.3986V51.9672Z" fill="#ABB3C7"/>
<path d="M52.38 11.2477H47.8289C47.4154 11.2477 47.0768 11.5863 47.0768 11.9999V16.5584C47.0768 16.972 47.4153 17.3106 47.8289 17.3106L52.38 17.3109C52.801 17.3109 53.1321 16.9723 53.1321 16.5588L53.1325 11.9999C53.1325 11.5863 52.8014 11.2477 52.38 11.2477V11.2477ZM51.6278 15.8063H48.5814V12.752H51.6282L51.6278 15.8063Z" fill="#ABB3C7"/>
<path d="M52.38 18.4843H47.8289C47.4154 18.4843 47.0768 18.8154 47.0768 19.2364V23.7875C47.0768 24.201 47.4153 24.5396 47.8289 24.5396L52.38 24.54C52.801 24.54 53.1321 24.2014 53.1321 23.7878V19.2368C53.1325 18.815 52.8014 18.4843 52.38 18.4843V18.4843ZM51.6278 23.0353H48.5814V19.9886H51.6282L51.6278 23.0353Z" fill="#ABB3C7"/>
<path d="M52.38 25.7135H47.8289C47.4154 25.7135 47.0768 26.0521 47.0768 26.4657V31.0242C47.0768 31.4378 47.4153 31.7764 47.8289 31.7764L52.38 31.7767C52.801 31.7767 53.1321 31.4381 53.1321 31.0246V26.466C53.1325 26.0521 52.8014 25.7135 52.38 25.7135ZM51.6278 30.2721H48.5814V27.2178H51.6282L51.6278 30.2721Z" fill="#ABB3C7"/>
<path d="M52.38 32.9428H47.8289C47.4154 32.9428 47.0768 33.2814 47.0768 33.695V38.2535C47.0768 38.6674 47.4153 39.0056 47.8289 39.0056H52.38C52.801 39.0056 53.1321 38.6671 53.1321 38.2535V33.695C53.1325 33.2814 52.8014 32.9428 52.38 32.9428ZM51.6278 37.5013H48.5814V34.4471H51.6282L51.6278 37.5013Z" fill="#ABB3C7"/>
<path d="M52.38 40.1794H47.8289C47.4154 40.1794 47.0768 40.5179 47.0768 40.9315V45.49C47.0768 45.9036 47.4153 46.2422 47.8289 46.2422L52.38 46.2425C52.801 46.2425 53.1321 45.904 53.1321 45.4904V40.9319C53.1325 40.5179 52.8014 40.1794 52.38 40.1794ZM51.6278 44.7383H48.5814V41.684H51.6282L51.6278 44.7383Z" fill="#ABB3C7"/>
<path d="M52.38 47.4086H47.8289C47.4154 47.4086 47.0768 47.7472 47.0768 48.1608V52.7193C47.0768 53.1329 47.4153 53.4715 47.8289 53.4715L52.38 53.4718C52.801 53.4718 53.1321 53.1333 53.1321 52.7197L53.1325 48.1608C53.1325 47.7472 52.8014 47.4086 52.38 47.4086V47.4086ZM51.6278 51.9672H48.5814V48.9129H51.6282L51.6278 51.9672Z" fill="#ABB3C7"/>
<path d="M16.2199 11.2477H11.6689C11.2478 11.2477 10.9167 11.5863 10.9167 11.9999V16.5584C10.9167 16.972 11.2478 17.3105 11.6689 17.3105H16.2199C16.6335 17.3105 16.9721 16.972 16.9721 16.5584V11.9999C16.9721 11.5863 16.6335 11.2477 16.2199 11.2477ZM15.4674 15.8062H12.421V12.752H15.4678L15.4674 15.8062Z" fill="#ABB3C7"/>
<path d="M16.2199 18.4843H11.6689C11.2478 18.4843 10.9167 18.8154 10.9167 19.2364V23.7875C10.9167 24.201 11.2478 24.5396 11.6689 24.5396H16.2199C16.6335 24.5396 16.9721 24.201 16.9721 23.7875V19.2364C16.9721 18.815 16.6335 18.4843 16.2199 18.4843ZM15.4674 23.0353H12.421V19.9886H15.4678L15.4674 23.0353Z" fill="#ABB3C7"/>
<path d="M16.2199 25.7135H11.6689C11.2478 25.7135 10.9167 26.0521 10.9167 26.4657V31.0242C10.9167 31.4378 11.2478 31.7764 11.6689 31.7764H16.2199C16.6335 31.7764 16.9721 31.4378 16.9721 31.0242V26.4657C16.9721 26.0521 16.6335 25.7135 16.2199 25.7135ZM15.4674 30.2721H12.421V27.2178H15.4678L15.4674 30.2721Z" fill="#ABB3C7"/>
<path d="M16.2199 32.9428H11.6689C11.2478 32.9428 10.9167 33.2814 10.9167 33.695V38.2535C10.9167 38.6674 11.2478 39.0056 11.6689 39.0056H16.2199C16.6335 39.0056 16.9721 38.6671 16.9721 38.2535V33.695C16.9721 33.2814 16.6335 32.9428 16.2199 32.9428ZM15.4674 37.5013H12.421V34.4471H15.4678L15.4674 37.5013Z" fill="#ABB3C7"/>
<path d="M16.2199 40.1794H11.6689C11.2478 40.1794 10.9167 40.5179 10.9167 40.9315V45.49C10.9167 45.9036 11.2478 46.2422 11.6689 46.2422H16.2199C16.6335 46.2422 16.9721 45.9036 16.9721 45.49V40.9315C16.9721 40.5179 16.6335 40.1794 16.2199 40.1794ZM15.4674 44.7383H12.421V41.684H15.4678L15.4674 44.7383Z" fill="#ABB3C7"/>
<path d="M16.2199 47.4086H11.6689C11.2478 47.4086 10.9167 47.7472 10.9167 48.1608V52.7193C10.9167 53.1329 11.2478 53.4715 11.6689 53.4715H16.2199C16.6335 53.4715 16.9721 53.1329 16.9721 52.7193V48.1608C16.9721 47.7472 16.6335 47.4086 16.2199 47.4086ZM15.4674 51.9672H12.421V48.9129H15.4678L15.4674 51.9672Z" fill="#ABB3C7"/>
</svg>
