<svg width="64" height="64" viewBox="0 0 64 64" fill="none" xmlns="http://www.w3.org/2000/svg">
<path d="M47.5484 28.1463C47.5252 28.0299 47.4709 27.9292 47.3855 27.8438C44.8255 22.9953 41.1562 16.6265 36.4324 17.2546C36.0224 16.2535 37.9181 20.881 32.4217 7.46439C32.3906 7.38689 32.3442 7.32475 32.2899 7.27046C32.2046 7.26296 32.1113 7.27832 32.0338 7.30939C31.866 7.37868 32.0538 6.56368 27.6353 17.4022C26.7278 17.2704 25.8278 17.379 24.9357 17.7436C20.0871 19.7376 16.1153 29.1941 14.362 31.9708C9.64555 39.4337 9.66877 47.734 11.4916 56.2991C11.5848 56.6791 12.0112 56.873 12.3605 56.6637C24.7107 49.2162 26.2074 41.9711 28.8606 33.3988C28.9228 33.2977 28.9613 33.1895 28.9692 33.0731C30.5827 27.8288 32.491 20.7302 28.7131 17.8374L32.0952 9.73849L35.3689 17.7057C34.6396 18.2564 34.0735 18.9699 33.701 19.8546C31.6763 24.6949 35.5549 34.1906 36.2842 37.3943C38.2235 46.0054 44.1038 51.8619 51.4504 56.6253C51.7918 56.8271 52.234 56.6643 52.3272 56.2686C55.8026 42.2736 51.73 36.0903 47.5486 28.147L47.5484 28.1463ZM17.185 29.2013L23.8411 26.4706L20.8932 33.5303L13.2908 36.6488C14.2451 34.2206 14.3225 34.5542 17.1851 29.2013H17.185ZM12.3053 54.0489L12.2975 54.0567L12.2896 54.0956C12.2743 54.1189 12.2743 54.1346 12.2664 54.1499C12.2585 54.1732 12.251 54.181 12.2432 54.1967C12.2353 54.2199 12.2353 54.2274 12.2353 54.2274C11.8243 52.1407 11.3821 49.1464 11.4907 45.7328L16.6729 43.6071C13.5 51.2096 12.5539 53.4668 12.3053 54.0492L12.3053 54.0489ZM20.9474 48.0367L18.5581 42.2106C18.5503 42.1952 18.5428 42.1874 18.5349 42.172L21.4906 35.097L24.5782 42.622C23.546 44.6699 22.2896 46.4695 20.9474 48.0367L20.9474 48.0367ZM28.286 31.3117L25.726 25.0745C25.7182 25.0592 25.7107 25.0434 25.7028 25.0277L28.2396 18.9534C30.7996 21.2888 29.6282 26.7423 28.286 31.3118L28.286 31.3117ZM45.663 27.0838L39.4415 24.4774C39.4262 24.4774 39.4104 24.4774 39.3951 24.4695L36.8973 18.3799C40.3491 18.2171 43.3823 22.9024 45.663 27.0838L45.663 27.0838ZM38.8365 41.4582C37.7894 39.0689 38.0762 39.2475 36.323 33.4368L39.1001 26.8043L42.009 33.8794L38.8365 41.4582ZM43.9876 49.154L46.1519 43.9872C49.278 51.605 50.2091 53.8706 50.4419 54.4603L50.4498 54.4682L50.4576 54.4992C50.473 54.5224 50.4809 54.546 50.4809 54.5535C50.4887 54.5767 50.5041 54.5921 50.5041 54.6003C50.5119 54.6235 50.5119 54.631 50.5119 54.631C48.7505 53.4518 46.3148 51.6446 43.9877 49.1543L43.9876 49.154ZM46.4933 41.6679C46.478 41.66 46.4622 41.66 46.4465 41.6525L43.5376 34.5621L51.0391 37.7039C51.7605 39.8761 52.1405 42.0404 52.3037 44.0964L46.4933 41.6679Z" fill="#ABB3C7"/>
</svg>
