<svg width="20" height="20" viewBox="0 0 20 20" fill="none" xmlns="http://www.w3.org/2000/svg">
<path d="M16.1414 4.07498L11.2581 1.89998C10.5414 1.58331 9.45807 1.58331 8.74141 1.89998L3.85807 4.07498C2.62474 4.62498 2.44141 5.37498 2.44141 5.77498C2.44141 6.17498 2.62474 6.92498 3.85807 7.47498L8.74141 9.64998C9.09974 9.80831 9.54974 9.89164 9.99974 9.89164C10.4497 9.89164 10.8997 9.80831 11.2581 9.64998L16.1414 7.47498C17.3747 6.92498 17.5581 6.17498 17.5581 5.77498C17.5581 5.37498 17.3831 4.62498 16.1414 4.07498Z" fill="#FF8700"/>
<path d="M10.0003 14.2C9.68359 14.2 9.36693 14.1334 9.07526 14.0084L3.45859 11.5084C2.60026 11.125 1.93359 10.1 1.93359 9.15835C1.93359 8.81669 2.20859 8.54169 2.55026 8.54169C2.89193 8.54169 3.16693 8.81669 3.16693 9.15835C3.16693 9.60835 3.54193 10.1917 3.95859 10.375L9.57526 12.875C9.84193 12.9917 10.1503 12.9917 10.4169 12.875L16.0336 10.375C16.4503 10.1917 16.8253 9.61669 16.8253 9.15835C16.8253 8.81669 17.1003 8.54169 17.4419 8.54169C17.7836 8.54169 18.0586 8.81669 18.0586 9.15835C18.0586 10.0917 17.3919 11.125 16.5336 11.5084L10.9169 14.0084C10.6336 14.1334 10.3169 14.2 10.0003 14.2Z" fill="#FF8700"/>
<path d="M10.0003 18.3334C9.68359 18.3334 9.36693 18.2667 9.07526 18.1417L3.45859 15.6417C2.53359 15.2334 1.93359 14.3084 1.93359 13.2917C1.93359 12.95 2.20859 12.675 2.55026 12.675C2.89193 12.675 3.16693 12.95 3.16693 13.2917C3.16693 13.8167 3.47526 14.2917 3.95859 14.5084L9.57526 17.0084C9.84193 17.125 10.1503 17.125 10.4169 17.0084L16.0336 14.5084C16.5086 14.3 16.8253 13.8167 16.8253 13.2917C16.8253 12.95 17.1003 12.675 17.4419 12.675C17.7836 12.675 18.0586 12.95 18.0586 13.2917C18.0586 14.3084 17.4586 15.225 16.5336 15.6417L10.9169 18.1417C10.6336 18.2667 10.3169 18.3334 10.0003 18.3334Z" fill="#FF8700"/>
</svg>
