<svg width="24" height="24" viewBox="0 0 24 24" fill="none" xmlns="http://www.w3.org/2000/svg">
<path d="M21.9993 16.7399V4.66994C21.9993 3.46994 21.0193 2.57994 19.8293 2.67994H19.7693C17.6693 2.85994 14.4793 3.92994 12.6993 5.04994L12.5293 5.15994C12.2393 5.33994 11.7593 5.33994 11.4693 5.15994L11.2193 5.00994C9.43927 3.89994 6.25927 2.83994 4.15927 2.66994C2.96927 2.56994 1.99927 3.46994 1.99927 4.65994V16.7399C1.99927 17.6999 2.77927 18.5999 3.73927 18.7199L4.02927 18.7599C6.19927 19.0499 9.54927 20.1499 11.4693 21.1999L11.5093 21.2199C11.7793 21.3699 12.2093 21.3699 12.4693 21.2199C14.3893 20.1599 17.7493 19.0499 19.9293 18.7599L20.2593 18.7199C21.2193 18.5999 21.9993 17.6999 21.9993 16.7399Z" stroke="#848A99" stroke-width="1.2" stroke-linecap="round" stroke-linejoin="round"/>
<path d="M12 5.48994V20.4899" stroke="#848A99" stroke-width="1.2" stroke-linecap="round" stroke-linejoin="round"/>
<path d="M7.75073 8.48994H5.50073" stroke="#848A99" stroke-width="1.2" stroke-linecap="round" stroke-linejoin="round"/>
<path d="M8.50073 11.4899H5.50073" stroke="#848A99" stroke-width="1.2" stroke-linecap="round" stroke-linejoin="round"/>
</svg>
