<svg width="24" height="24" viewBox="0 0 24 24" fill="none" xmlns="http://www.w3.org/2000/svg">
<path d="M12.0315 22C11.8023 22 11.6017 21.919 11.4298 21.757C11.2579 21.5943 11.1719 21.3887 11.1719 21.1404C11.1719 20.8921 11.2579 20.6865 11.4298 20.5238C11.6017 20.3618 11.8023 20.2808 12.0315 20.2808H19.5673C19.6628 20.2808 19.7442 20.2476 19.8115 20.1811C19.8779 20.1138 19.9112 20.0325 19.9112 19.937V11.6562C19.9112 10.5482 19.701 9.50716 19.2808 8.53295C18.8606 7.55874 18.2875 6.70869 17.5616 5.98281C16.8357 5.25692 15.9857 4.68386 15.0115 4.26361C14.0372 3.84336 12.9962 3.63324 11.8883 3.63324C10.7803 3.63324 9.73925 3.84336 8.76504 4.26361C7.79083 4.68386 6.94078 5.25692 6.2149 5.98281C5.48902 6.70869 4.91595 7.55874 4.4957 8.53295C4.07545 9.50716 3.86533 10.5482 3.86533 11.6562V17.7593C3.86533 17.9885 3.78395 18.1891 3.6212 18.361C3.45922 18.5329 3.25406 18.6189 3.00573 18.6189C2.45177 18.6189 1.97918 18.4233 1.58797 18.0321C1.19599 17.6401 1 17.1671 1 16.6132V14.3209C1 13.9389 1.10506 13.5901 1.31519 13.2745C1.52531 12.9597 1.80229 12.6972 2.14613 12.4871L2.20344 10.9971C2.29895 9.67908 2.62865 8.46609 3.19255 7.35817C3.75568 6.25024 4.4766 5.29971 5.3553 4.50659C6.234 3.71423 7.2319 3.09838 8.349 2.65903C9.46686 2.21968 10.6466 2 11.8883 2C13.1299 2 14.3142 2.21968 15.4413 2.65903C16.5683 3.09838 17.5662 3.71423 18.435 4.50659C19.3045 5.29971 20.0212 6.24527 20.5851 7.34327C21.1482 8.44202 21.4776 9.65043 21.5731 10.9685L21.6304 12.4585C21.9742 12.6304 22.2512 12.8642 22.4613 13.1599C22.6714 13.4564 22.7765 13.7861 22.7765 14.149V16.7851C22.7765 17.1289 22.6714 17.4491 22.4613 17.7456C22.2512 18.0413 21.9742 18.2751 21.6304 18.447V19.937C21.6304 20.51 21.4298 20.9971 21.0287 21.3983C20.6275 21.7994 20.1404 22 19.5673 22H12.0315Z" fill="#848A99"/>
</svg>
