<svg width="116" height="116" viewBox="0 0 116 116" fill="none" xmlns="http://www.w3.org/2000/svg">
<circle cx="58" cy="58" r="57" fill="#4CA6A8" stroke="#BBECED" stroke-width="2"/>
<path d="M42.1103 46.968C41.9023 50.024 41.7983 53.384 41.7983 57.048C41.7983 60.584 41.9023 64.168 42.1103 67.8C41.2143 67.592 40.2543 67.488 39.2303 67.488C38.2383 67.488 37.2783 67.592 36.3503 67.8C36.5423 64.44 36.6383 60.864 36.6383 57.072C36.6383 55.024 36.5983 52.8 36.5182 50.4C35.4463 53.024 34.3503 55.968 33.2303 59.232C32.0463 62.784 31.2063 65.64 30.7103 67.8C29.9743 65.528 28.8623 62.592 27.3743 58.992C26.9263 57.936 25.6783 55.056 23.6303 50.352V59.016C23.6303 60.632 23.9583 62.224 24.6143 63.792C25.1263 64.976 26.2543 66.312 27.9983 67.8L27.5183 67.728C26.8463 67.632 25.9663 67.584 24.8783 67.584C24.0463 67.584 23.2223 67.656 22.4062 67.8V67.752C22.5503 64.328 22.6223 60.888 22.6223 57.432C22.6223 54.36 22.5583 51.072 22.4303 47.568L22.4062 46.968C23.4943 47.176 24.5103 47.28 25.4543 47.28C26.3983 47.28 27.4143 47.176 28.5023 46.968H28.5263L28.7183 47.664C29.2463 49.456 29.7983 51.144 30.3743 52.728C31.0623 54.568 31.7423 56.208 32.4143 57.648L32.4863 57.72C33.4143 55.416 34.6383 52.032 36.1583 47.568L36.3503 46.968C36.7663 47.064 37.1823 47.136 37.5983 47.184C38.3023 47.248 38.8463 47.28 39.2303 47.28C40.2223 47.28 41.1823 47.176 42.1103 46.968ZM54.4613 46.968C55.5333 47.096 56.6133 47.16 57.7013 47.16C58.8373 47.16 59.8133 47.096 60.6293 46.968C60.5333 48.776 60.4853 50.744 60.4853 52.872C60.4853 55.304 60.5333 57.704 60.6293 60.072C60.6293 62.44 59.9893 64.32 58.7093 65.712C57.4453 67.104 55.4453 67.8 52.7093 67.8C49.8453 67.8 47.6373 67.136 46.0853 65.808C44.5493 64.496 43.7812 62.608 43.7812 60.144C43.9093 58.336 43.9733 56.368 43.9733 54.24C43.9733 52.24 43.9093 49.816 43.7812 46.968C44.7093 47.176 45.6773 47.28 46.6853 47.28C47.6133 47.28 48.5333 47.184 49.4453 46.992L49.5413 46.968V61.32C49.5413 62.808 49.9333 64.056 50.7173 65.064C51.5173 66.072 52.6773 66.576 54.1973 66.576C55.9733 66.576 57.2853 65.968 58.1333 64.752C58.9813 63.552 59.4053 62.048 59.4053 60.24V57.504C59.4053 53.632 57.7573 50.12 54.4613 46.968ZM79.1449 46.968C78.9369 47.896 78.8329 48.872 78.8329 49.896C78.8329 50.712 78.9049 51.528 79.0489 52.344L79.1449 52.944C78.6329 51.808 77.8649 50.824 76.8409 49.992C75.8329 49.16 74.6569 48.672 73.3129 48.528C73.2169 50.496 73.1689 52.52 73.1689 54.6C73.1689 58.36 73.3129 62.76 73.6009 67.8C72.7049 67.592 71.7449 67.488 70.7209 67.488C69.7289 67.488 68.7689 67.592 67.8409 67.8C68.1769 62.264 68.3449 57.704 68.3449 54.12C68.3449 52.216 68.2969 50.352 68.2009 48.528C67.1289 48.72 66.0409 49.248 64.9369 50.112C63.8489 50.96 62.9689 51.904 62.2969 52.944L62.4409 52.176C62.5689 51.52 62.6329 50.768 62.6329 49.92C62.6329 48.864 62.5209 47.88 62.2969 46.968C65.3369 47.176 68.1449 47.28 70.7209 47.28C73.3289 47.28 76.1369 47.176 79.1449 46.968ZM87.5786 46.968L87.7946 47.904C89.2346 54.736 91.0186 61.368 93.1466 67.8L92.8826 67.728C91.9546 67.552 91.0666 67.464 90.2186 67.464C89.2266 67.464 88.2186 67.576 87.1946 67.8L86.9306 66.48C86.4506 64.208 86.0106 62.288 85.6106 60.72H79.2986C79.2346 61.104 79.2026 61.536 79.2026 62.016C79.2026 64.192 79.8986 66.12 81.2906 67.8L81.0506 67.728C80.2186 67.552 79.4106 67.464 78.6266 67.464C77.7466 67.464 76.8346 67.576 75.8906 67.8L76.0826 67.224C78.2426 60.696 80.1946 53.944 81.9386 46.968C82.9306 47.176 83.8586 47.28 84.7226 47.28C85.6026 47.28 86.5386 47.176 87.5306 46.968H87.5786ZM79.5866 59.472H85.2986C84.4986 56.368 83.5306 53.144 82.3946 49.8L79.5866 59.472Z" fill="#1B1E26"/>
</svg>
