<svg width="22" height="22" viewBox="0 0 22 22" fill="none" xmlns="http://www.w3.org/2000/svg">
<path d="M11.018 2.66748C7.98388 2.66748 5.51805 5.13331 5.51805 8.16748V10.8166C5.51805 11.3758 5.27971 12.2283 4.99555 12.705L3.94138 14.4558C3.29055 15.5375 3.73971 16.7383 4.93138 17.1416C8.88221 18.4616 13.1447 18.4616 17.0955 17.1416C18.2047 16.775 18.6905 15.4641 18.0855 14.4558L17.0314 12.705C16.7564 12.2283 16.518 11.3758 16.518 10.8166V8.16748C16.518 5.14248 14.043 2.66748 11.018 2.66748Z" stroke="#C6CFE6" stroke-width="1.3" stroke-miterlimit="10" stroke-linecap="round"/>
<path d="M12.7137 2.93338C12.4295 2.85088 12.1362 2.78671 11.8337 2.75005C10.9537 2.64005 10.1104 2.70421 9.32202 2.93338C9.58785 2.25505 10.2479 1.77838 11.0179 1.77838C11.7879 1.77838 12.4479 2.25505 12.7137 2.93338Z" stroke="#C6CFE6" stroke-width="1.3" stroke-miterlimit="10" stroke-linecap="round" stroke-linejoin="round"/>
<path d="M13.7683 17.4716C13.7683 18.9841 12.5308 20.2216 11.0183 20.2216C10.2666 20.2216 9.56998 19.91 9.07498 19.415C8.57998 18.92 8.26831 18.2233 8.26831 17.4716" stroke="#C6CFE6" stroke-width="1.3" stroke-miterlimit="10"/>
</svg>
