<svg width="64" height="64" viewBox="0 0 64 64" fill="none" xmlns="http://www.w3.org/2000/svg">
<path d="M46.4969 48.5506L43.0369 45.0906L46.4969 41.6306C46.6444 41.4834 46.7297 41.2891 46.7297 41.0798C46.7297 40.8781 46.6444 40.6763 46.4969 40.537L39.6158 33.6559C39.3133 33.3534 38.8244 33.3534 38.5218 33.6559C38.2193 33.9584 38.2193 34.4548 38.5218 34.7573L44.8522 41.0798L41.9433 43.9966L32.5563 34.6023C32.4088 34.4626 32.2074 34.3773 32.0056 34.3773C31.7963 34.3773 31.602 34.4626 31.4549 34.6023L22.0679 43.9966L19.1512 41.0798L25.5822 34.6566C25.8847 34.3541 25.8847 33.8651 25.5822 33.5626C25.2797 33.2601 24.7833 33.2601 24.4808 33.5626L17.5069 40.5369C17.2044 40.8394 17.2044 41.3283 17.5069 41.6305L20.9669 45.0905L17.5069 48.5505C17.2044 48.853 17.2044 49.3494 17.5069 49.6523L24.4808 56.6262C24.8015 56.9309 25.2722 56.9212 25.5822 56.6262C25.8847 56.3237 25.8847 55.8273 25.5822 55.5248L19.1512 49.1016L22.0679 46.1927L31.4549 55.5787C31.6024 55.7259 31.7963 55.8037 32.0056 55.8037C32.2074 55.8037 32.4092 55.7262 32.5563 55.5787L41.9433 46.1927L44.8522 49.1016L38.4289 55.5248C38.1264 55.8273 38.1264 56.3237 38.4289 56.6262C38.7486 56.9301 39.2193 56.9219 39.5304 56.6262L46.4968 49.6523C46.8071 49.3495 46.8071 48.853 46.4968 48.5505L46.4969 48.5506ZM32.0054 53.9346L23.1618 45.0909L32.0054 36.2552L40.8412 45.0909L32.0054 53.9346Z" fill="#ABB3C7"/>
<path d="M46.4969 22.4231L43.0369 18.963L46.4969 15.503C46.6444 15.3559 46.7297 15.1537 46.7297 14.9523C46.7297 14.743 46.6444 14.5487 46.4969 14.4012L39.6158 7.52799C39.3133 7.22549 38.8244 7.22549 38.5218 7.52799C38.2193 7.83049 38.2193 8.31942 38.5218 8.62157L44.8522 14.9519L41.9433 17.8608L32.5563 8.47382C32.4088 8.32668 32.2074 8.24882 32.0056 8.24882C31.7963 8.24882 31.602 8.32632 31.4549 8.47382L22.0679 17.8608L19.1512 14.9519L25.5822 8.52831C25.8847 8.22581 25.8847 7.72938 25.5822 7.42687C25.2797 7.12437 24.7833 7.12437 24.4808 7.42687L17.5069 14.4008C17.2044 14.7033 17.2044 15.1997 17.5069 15.5026L20.9669 18.9626L17.5069 22.4226C17.2044 22.7251 17.2044 23.214 17.5069 23.5162L24.4808 30.4901C24.7908 30.8005 25.2922 30.7805 25.5822 30.4901C25.8847 30.1876 25.8847 29.6987 25.5822 29.3965L19.1512 22.9733L22.0679 20.0565L31.4549 29.4435C31.6099 29.5985 31.8038 29.6764 32.0056 29.6764C32.2074 29.6764 32.4013 29.5989 32.5563 29.4435L41.9433 20.0565L44.8522 22.9733L38.4289 29.3965C38.1264 29.699 38.1264 30.1879 38.4289 30.4901C38.7386 30.8001 39.24 30.7808 39.5304 30.4901L46.4968 23.5162C46.8071 23.2144 46.8071 22.7258 46.4968 22.423L46.4969 22.4231ZM32.0054 27.7991L23.1618 18.9634L32.0054 10.1198L40.8412 18.9634L32.0054 27.7991Z" fill="#ABB3C7"/>
</svg>
