<svg width="26" height="26" viewBox="0 0 26 26" fill="none" xmlns="http://www.w3.org/2000/svg">
<path d="M12.9995 2.50006C10.2485 2.50006 8.01196 4.73656 8.01196 7.48756C8.01196 10.1861 10.1225 12.3701 12.8735 12.4646C12.9575 12.4541 13.0415 12.4541 13.1045 12.4646C13.1255 12.4646 13.136 12.4646 13.157 12.4646C13.1675 12.4646 13.1675 12.4646 13.178 12.4646C15.866 12.3701 17.9765 10.1861 17.987 7.48756C17.987 4.73656 15.7505 2.50006 12.9995 2.50006Z" fill="#1B1E26"/>
<path d="M18.3349 15.2575C15.4054 13.3045 10.6279 13.3045 7.67739 15.2575C6.34389 16.15 5.60889 17.3575 5.60889 18.649C5.60889 19.9405 6.34389 21.1375 7.66689 22.0195C9.13689 23.0065 11.0689 23.5 13.0009 23.5C14.9329 23.5 16.8649 23.0065 18.3349 22.0195C19.6579 21.127 20.3929 19.93 20.3929 18.628C20.3824 17.3365 19.6579 16.1395 18.3349 15.2575Z" fill="#1B1E26"/>
</svg>
