<svg width="32" height="32" viewBox="0 0 32 32" fill="none" xmlns="http://www.w3.org/2000/svg">
<path d="M32 24C32 24.943 31.6254 25.8474 30.9586 26.5142C30.2918 27.181 29.3874 27.5556 28.4444 27.5556H3.55556C2.61256 27.5556 1.70819 27.181 1.0414 26.5142C0.374602 25.8474 0 24.943 0 24V8.00001C0 7.05702 0.374602 6.15265 1.0414 5.48586C1.70819 4.81906 2.61256 4.44446 3.55556 4.44446H28.4444C29.3874 4.44446 30.2918 4.81906 30.9586 5.48586C31.6254 6.15265 32 7.05702 32 8.00001V24Z" fill="#006600"/>
<path d="M28.4445 4.44446H13.3334V27.5556H28.4445C29.3875 27.5556 30.2918 27.181 30.9586 26.5142C31.6254 25.8474 32 24.943 32 24V8.00001C32 7.05702 31.6254 6.15265 30.9586 5.48586C30.2918 4.81906 29.3875 4.44446 28.4445 4.44446Z" fill="#D52B1E"/>
<path d="M13.3333 8.88892C11.4473 8.88892 9.63856 9.63812 8.30496 10.9717C6.97137 12.3053 6.22217 14.114 6.22217 16C6.22217 17.886 6.97137 19.6948 8.30496 21.0283C9.63856 22.3619 11.4473 23.1111 13.3333 23.1111C15.2193 23.1111 17.028 22.3619 18.3616 21.0283C19.6952 19.6948 20.4444 17.886 20.4444 16C20.4444 14.114 19.6952 12.3053 18.3616 10.9717C17.028 9.63812 15.2193 8.88892 13.3333 8.88892ZM7.8995 12.9725L9.3235 14.3965L7.13683 15.4898C7.2074 14.6057 7.46752 13.7471 7.8995 12.9725ZM7.13683 16.5094L11.0479 18.4711L8.64261 20.0747L8.65506 20.0934C7.77673 19.093 7.24432 17.8362 7.13683 16.5094ZM12.4444 22.1511C11.6296 22.0349 10.8462 21.7568 10.1404 21.3334H12.4444V22.1511ZM12.4444 20.4445H9.68972L12.4444 18.608V20.4445ZM12.4444 17.5396L11.9048 17.8996L8.10483 16L9.98572 15.0596L12.4444 17.5174V17.5396ZM12.4444 16.2605L9.29506 13.1111L12.4444 13.6356V16.2605ZM12.4444 12.712L8.50483 12.0782C9.49058 10.8657 10.8974 10.0696 12.4444 9.84892V12.712ZM18.7671 12.9725C19.1992 13.7474 19.4593 14.6063 19.5297 15.4907L17.3431 14.3974L18.7671 12.9725ZM14.2222 9.84892C15.769 10.07 17.1757 10.866 18.1617 12.0782L14.2222 12.712V9.84892ZM14.2222 13.6356L17.3715 13.1102L14.2222 16.2605V13.6356ZM14.2222 17.5174L16.6799 15.0596L18.5617 16L14.7626 17.8996L14.2222 17.5396V17.5174ZM14.2222 22.1511V21.3334H16.5262C15.8204 21.7568 15.037 22.0349 14.2222 22.1511ZM14.2222 20.4445V18.608L16.9768 20.4445H14.2222ZM18.0124 20.0934L18.0248 20.0747L15.6195 18.4711L19.5306 16.5094C19.4223 17.836 18.89 19.0926 18.0124 20.0934Z" fill="#FFCC4D"/>
<path d="M9.77783 11.5555V17.7778C9.77783 18.7208 10.1524 19.6251 10.8192 20.2919C11.486 20.9587 12.3904 21.3333 13.3334 21.3333C14.2764 21.3333 15.1807 20.9587 15.8475 20.2919C16.5143 19.6251 16.8889 18.7208 16.8889 17.7778V11.5555H9.77783Z" fill="#D52B1E"/>
<path d="M10.6666 12.4445V17.7778C10.6666 18.485 10.9476 19.1633 11.4477 19.6634C11.9478 20.1635 12.626 20.4445 13.3333 20.4445C14.0405 20.4445 14.7188 20.1635 15.2189 19.6634C15.719 19.1633 16 18.485 16 17.7778V12.4445H10.6666Z" fill="white"/>
<path d="M11.5555 15.1111H15.1111V16.8889H11.5555V15.1111Z" fill="#829ACD"/>
<path d="M12.4445 14.2222H14.2222V17.7778H12.4445V14.2222Z" fill="#829ACD"/>
<path d="M10.6666 15.1111H11.5555V16.8889H10.6666V15.1111ZM12.4444 15.1111H14.2222V16.8889H12.4444V15.1111ZM15.1111 15.1111H16V16.8889H15.1111V15.1111ZM12.4444 17.7778H14.2222V19.5556H12.4444V17.7778ZM12.4444 12.4445H14.2222V14.2222H12.4444V12.4445Z" fill="#003399"/>
</svg>
