<svg width="64" height="64" viewBox="0 0 64 64" fill="none" xmlns="http://www.w3.org/2000/svg">
<path d="M56.0316 49.8772C56.2002 51.3 56.4273 53.2533 56.8312 55.8714C56.8734 56.1407 56.7891 56.41 56.5955 56.6036C56.4359 56.7557 56.2252 56.8482 55.998 56.8482C55.9559 56.8482 55.9137 56.8397 55.8719 56.8397C53.3294 56.4439 51.4773 56.225 49.9873 56.0568C46.9816 55.7114 45.618 55.5514 44.1866 54.3982C41.9977 52.6303 41.2905 50.0707 42.2419 47.3682C42.5619 46.4507 43.0502 45.6003 43.6563 44.851L32.0211 33.2168L20.3859 44.851C20.9919 45.6003 21.4802 46.4507 21.8002 47.3682C22.7516 50.0707 22.0444 52.63 19.8555 54.3982C17.7708 56.0782 15.9694 55.6261 8.16999 56.8396C8.12785 56.8396 8.0857 56.8482 8.04356 56.8482C7.82464 56.8482 7.6057 56.7557 7.4457 56.6039C7.2607 56.4103 7.16784 56.141 7.20999 55.8717C7.61392 53.2535 7.84141 51.3003 8.00963 49.8775C8.35499 46.8636 8.49784 45.6093 9.65142 44.1947C10.9479 42.5782 12.6064 41.7279 14.4503 41.7279C16.1171 41.7279 17.8178 42.4519 19.2071 43.6476L30.8331 32.0297L19.2071 20.4028C17.8178 21.5899 16.1174 22.3138 14.4503 22.3138C12.6068 22.3138 10.9481 21.4634 9.64319 19.8556C8.49823 18.4328 8.35496 17.1867 8.01 14.1645C7.84179 12.7417 7.61429 10.7884 7.21035 8.17026C7.16821 7.90098 7.26071 7.63134 7.44607 7.44633C7.63964 7.25276 7.90892 7.16847 8.17 7.21062C10.7125 7.60633 12.5646 7.81669 14.055 7.98491C17.0603 8.33026 18.4243 8.49026 19.8557 9.64352C22.0446 11.4114 22.7518 13.9792 21.8004 16.6732C21.4804 17.591 20.9921 18.441 20.386 19.1903L32.0295 30.8337L43.6647 19.1903C43.05 18.441 42.5619 17.5907 42.2419 16.6732C41.2905 13.9796 41.9976 11.4117 44.1866 9.64352C45.6176 8.48996 46.9901 8.33033 49.9872 7.98491C51.4772 7.8167 53.3294 7.60598 55.8719 7.21062C56.1329 7.16848 56.4022 7.25276 56.5958 7.44633C56.7894 7.63133 56.8736 7.90098 56.8315 8.17026C56.4272 10.7885 56.2001 12.7417 56.0319 14.1645C55.6865 17.187 55.5436 18.4331 54.3987 19.8556C53.0937 21.4634 51.4351 22.3138 49.5915 22.3138C47.9248 22.3138 46.224 21.5899 44.8348 20.4028L33.217 32.0206L44.8348 43.6384C46.2237 42.4598 47.9244 41.7274 49.5915 41.7274C51.4351 41.7274 53.0937 42.5777 54.3987 44.1941C55.5436 45.6084 55.6869 46.8545 56.0319 49.8766L56.0316 49.8772Z" fill="#ABB3C7"/>
</svg>
