<svg width="64" height="64" viewBox="0 0 64 64" fill="none" xmlns="http://www.w3.org/2000/svg">
<path d="M37.8877 31.3471L32.6581 26.1175C37.2481 20.8118 36.9466 12.8951 32.0052 7.95428H32.0006C27.0195 12.9353 26.8102 20.8731 31.3477 26.1175L26.1185 31.3471C20.8731 26.81 12.9354 27.0192 7.95435 32V32.0046C12.9432 36.9939 20.9601 37.2528 26.2657 32.5243L31.481 37.7396C26.8092 42.9825 26.9725 51.0224 32.0007 56.0509H32.0053C36.946 51.1102 37.2489 43.1942 32.6585 37.8877L37.8881 32.6581C43.1938 37.2477 51.1105 36.9463 56.0513 32.0049V32.0002C51.0703 27.0195 43.1325 26.8102 37.8881 31.3474L37.8877 31.3471ZM36.2084 31.8621L32.0027 36.0675L27.9373 32.0025L32.1431 27.7967L36.2084 31.8621Z" fill="#ABB3C7"/>
</svg>
