<svg width="32" height="32" viewBox="0 0 32 32" fill="none" xmlns="http://www.w3.org/2000/svg">
<path d="M2.9624 22.5325C2.9624 22.5325 5.0749 28.8925 6.2774 30.25C7.1274 31.2075 8.4474 32.29 11.8924 31.565C11.8924 31.565 14.5824 31.265 17.9224 28.7C17.9224 28.7 19.9449 27.3925 20.1574 24.855C20.3174 22.945 20.3699 15.7425 20.3699 15.7425C20.3699 15.7425 20.0524 13.945 17.1499 13.945C14.2499 13.945 10.2274 15.845 7.1824 17.6275C4.1399 19.4175 2.9624 22.5325 2.9624 22.5325Z" fill="#FFBF13"/>
<path d="M5.92992 18.4075C8.66992 16.625 11.1524 15.59 12.8124 14.8875C12.8124 14.8875 16.7874 13.1075 18.9674 14.4475C18.9674 14.4475 21.5649 16.36 16.9624 19.29C12.3999 22.1925 9.36492 23.29 9.36492 23.29C9.36492 23.29 5.43742 24.8675 3.83742 22.6575C2.83492 21.2725 4.06242 19.62 5.92992 18.4075Z" fill="white"/>
<path d="M6.56246 24.515C5.11246 24.515 3.97996 24.01 3.28746 23.055C2.86996 22.4775 2.71496 21.81 2.84246 21.125C3.04996 20.0075 4.01496 18.8375 5.55996 17.835C8.28746 16.06 10.7825 15.005 12.435 14.3075L12.55 14.2575C12.6275 14.2225 14.7925 13.265 16.8975 13.265C17.8625 13.265 18.68 13.4675 19.3275 13.8675C19.3425 13.8775 19.36 13.8875 19.375 13.9C19.765 14.1875 20.415 14.955 20.38 16.0125C20.3375 17.3075 19.3125 18.6025 17.3325 19.8625C12.755 22.775 9.72496 23.885 9.59746 23.93C9.55996 23.945 8.11996 24.515 6.56246 24.515ZM16.895 14.6275C15.0875 14.6275 13.11 15.5 13.0925 15.5075L12.9625 15.5625C11.355 16.2425 8.92746 17.27 6.29996 18.9775C5.10746 19.7525 4.31496 20.65 4.17996 21.375C4.11996 21.7 4.18496 21.98 4.38746 22.26C4.81996 22.855 5.54746 23.1575 6.55996 23.1575C7.85746 23.1575 9.09746 22.665 9.10996 22.6625C9.16246 22.6425 12.1625 21.54 16.5975 18.72C18.13 17.745 18.99 16.7675 19.0175 15.97C19.035 15.435 18.6575 15.08 18.58 15.0125C18.1525 14.755 17.5875 14.6275 16.895 14.6275Z" fill="#FCC21B"/>
<path d="M15.59 23.8625C15.2975 23.305 14.38 23.29 13.5425 23.83C12.705 24.37 12.26 25.26 12.555 25.8175C12.755 26.2 13.25 26.32 13.8075 26.19L13.575 27.93L15.445 26.9525L14.7875 25.7125C15.5025 25.1725 15.86 24.38 15.59 23.8625Z" fill="#1B1E26"/>
<path d="M16.555 17.4725C15.2 17.84 14.545 17.2125 14.1575 16.5875C13.77 15.96 12.6425 12.865 12.5325 10.5175C12.3475 6.515 13.8325 1.5625 20.05 0.445002C29.2875 -1.215 29.29 5.9825 29.18 8.27C29.045 11.125 28.085 13.745 27.82 14.265C27.635 14.63 27.475 15.0975 26.425 15.2725C25.9 15.36 25.0125 14.99 24.8125 14.4575C24.3525 13.2325 28.225 3.07 20.6775 4.8C13.76 6.385 17.59 15.8125 17.59 15.8125C17.59 15.8125 17.9125 17.1025 16.555 17.4725Z" fill="#4CA6A8"/>
<path d="M6.51741 20.4025C6.85241 20.0525 7.35491 19.815 7.82991 19.7375C8.14991 19.685 8.57241 19.675 8.83491 19.8975C9.30491 20.2975 8.88491 21.03 8.52241 21.31C8.06741 21.665 7.41491 21.835 6.84491 21.775C6.18491 21.705 6.00991 21.145 6.34241 20.6275C6.39241 20.5475 6.45241 20.4725 6.51741 20.4025Z" fill="#1B1E26"/>
</svg>
