<svg width="20" height="20" viewBox="0 0 20 20" fill="none" xmlns="http://www.w3.org/2000/svg">
<path d="M8.125 5.54999V6.60624H19.9891C19.9725 6.26561 19.9369 5.83499 19.8094 5.54999" fill="#EC1C24"/>
<path d="M19.25 4.49374H8.125V5.54999H19.8094C19.6825 5.15593 19.4937 4.79656 19.25 4.49374Z" fill="#E6E7E8"/>
<path d="M16.875 3.4375H8.125V4.49375H19.25C18.7284 3.84063 17.87 3.4375 16.875 3.4375Z" fill="#EC1C24"/>
<path d="M19.9891 6.60626H8.125V7.66251H20V6.95845C20 6.89564 19.9959 6.83439 19.9941 6.77283C19.9928 6.75595 19.9909 6.71251 19.9891 6.60626Z" fill="#E6E7E8"/>
<path d="M8.125 8.71876H20V7.66251H8.125V8.71876Z" fill="#EC1C24"/>
<path d="M8.125 9.775H20V8.71875H8.125V9.775Z" fill="#E6E7E8"/>
<path d="M8.125 9.77499H20V10.8312H8.125V9.77499Z" fill="#EC1C24"/>
<path d="M0 10.8312V11.8875H20V10.8312H8.125H0Z" fill="#E6E7E8"/>
<path d="M0 11.8875H20V12.9438H0V11.8875Z" fill="#EC1C24"/>
<path d="M0.0015625 13.5934C0.0015625 13.5934 -0.00125 13.8494 0.00625 14H19.9937C20.0025 13.8456 19.9984 13.5934 19.9984 13.5934L20 12.9438H0L0.0015625 13.5934Z" fill="#E6E7E8"/>
<path d="M3.1249 17.1875H16.8749C17.8727 17.1875 18.7021 16.825 19.2687 16.1125H0.728027C1.31303 16.8406 2.15803 17.1875 3.12334 17.1875" fill="#EC1C24"/>
<path d="M0.72959 16.1125H19.2702C19.5174 15.7984 19.702 15.4399 19.814 15.0562H0.188965C0.303058 15.4387 0.486875 15.7968 0.731152 16.1125" fill="#E6E7E8"/>
<path d="M0.187598 15.0563H19.8126C19.9149 14.7127 19.9758 14.3581 19.9938 14H0.00634766C0.0372852 14.3613 0.0660352 14.6341 0.187598 15.0563Z" fill="#EC1C24"/>
<path d="M8.125 3.4375H3.125C1.05406 3.4375 0 4.97656 0 6.875V10.8313H8.125V3.4375Z" fill="#176496"/>
<path d="M0.874395 5.30499L1.04439 5.17437L1.21408 5.30499L1.14814 5.09499L1.31721 4.96655H1.10846L1.04377 4.75562L0.979395 4.96655H0.770957L0.940645 5.09499L0.874395 5.30499ZM1.99752 5.30499L2.16752 5.17437L2.33721 5.30499L2.27158 5.09499L2.44033 4.96655H2.23189L2.16721 4.75562L2.10283 4.96655H1.89377L2.06346 5.09499L1.99752 5.30499ZM3.23658 5.30499L3.40627 5.17437L3.57627 5.30499L3.51033 5.09499L3.67908 4.96655H3.47189L3.40627 4.75562L3.34158 4.96655H3.13439L3.30221 5.09499L3.23658 5.30499ZM4.46658 5.30499L4.63627 5.17437L4.80627 5.30499L4.74064 5.09499L4.90939 4.96655H4.70002L4.63627 4.75562L4.57189 4.96655H4.36314L4.53252 5.09499L4.46658 5.30499ZM5.70096 5.30499L5.87096 5.17437L6.04064 5.30499L5.97502 5.09499L6.14408 4.96655H5.93502L5.87064 4.75562L5.80627 4.96655H5.59783L5.76658 5.09499L5.70096 5.30499ZM1.47221 5.85343L1.64189 5.72311L1.81158 5.85343L1.74627 5.64374L1.91502 5.5153H1.70627L1.64158 5.30468L1.57814 5.5153H1.36877L1.53783 5.64374L1.47221 5.85343ZM2.59564 5.85343L2.76533 5.72311L2.93502 5.85343L2.86939 5.64374L3.03814 5.5153H2.82814L2.76533 5.30468L2.70064 5.5153H2.49221L2.66127 5.64374L2.59564 5.85343ZM3.83471 5.85343L4.00408 5.72311L4.17377 5.85343L4.10814 5.64374L4.27721 5.5153H4.06877L4.00408 5.30468L3.93939 5.5153H3.73064L3.89971 5.64374L3.83471 5.85343ZM5.06408 5.85343L5.23408 5.72311L5.40408 5.85343L5.33752 5.64374L5.50689 5.5153H5.29846L5.23377 5.30468L5.16971 5.5153H4.96096L5.13002 5.64374L5.06408 5.85343ZM6.30002 5.85343L6.46846 5.72311L6.63814 5.85343L6.57189 5.64374L6.74127 5.5153H6.53314L6.46814 5.30468L6.40408 5.5153H6.19533L6.36439 5.64374L6.30002 5.85343ZM6.99596 5.30499L7.16564 5.17437L7.33564 5.30499L7.26971 5.09499L7.43846 4.96655H7.23127L7.16533 4.75562L7.10096 4.96655H6.89064L7.06158 5.09499L6.99596 5.30499ZM0.857832 9.69374L1.02783 9.56468L1.19752 9.69374L1.13189 9.48561L1.30064 9.35686L1.09221 9.35749L1.02721 9.14686L0.963457 9.35749L0.754395 9.35686L0.923457 9.48561L0.857832 9.69374ZM1.98127 9.69374L2.15096 9.56468L2.32096 9.69374L2.25502 9.48561L2.42377 9.35686L2.21564 9.35749L2.15064 9.14686L2.08658 9.35749L1.87814 9.35686L2.04689 9.48561L1.98127 9.69374ZM3.22033 9.69374L3.39002 9.56468L3.56002 9.69374L3.49408 9.48561L3.66283 9.35686L3.45314 9.35749L3.38971 9.14686L3.32533 9.35749L3.11689 9.35686L3.28596 9.48561L3.22033 9.69374ZM4.45033 9.69374L4.62002 9.56468L4.78971 9.69374L4.72502 9.48561L4.89283 9.35686L4.68408 9.35749L4.61971 9.14686L4.55533 9.35749L4.34689 9.35686L4.51564 9.48561L4.45033 9.69374ZM5.68439 9.69374L5.85439 9.56468L6.02439 9.69374L5.95939 9.48561L6.12721 9.35686L5.91877 9.35749L5.85408 9.14686L5.79002 9.35749L5.58127 9.35686L5.75002 9.48561L5.68439 9.69374ZM6.97939 9.69374L7.14908 9.56468L7.31908 9.69374L7.25314 9.48561L7.42221 9.35686L7.21252 9.35749L7.14877 9.14686L7.08439 9.35749L6.87502 9.35686L7.04502 9.48561L6.97939 9.69374ZM0.874395 6.40249L1.04439 6.27186L1.21408 6.40249L1.14814 6.19249L1.31721 6.06405L1.10846 6.06468L1.04377 5.85343L0.979395 6.06468L0.770957 6.06405L0.940645 6.19249L0.874395 6.40249ZM1.99752 6.40249L2.16752 6.27186L2.33721 6.40249L2.27158 6.19249L2.44033 6.06405L2.23189 6.06468L2.16721 5.85343L2.10283 6.06468L1.89377 6.06405L2.06346 6.19249L1.99752 6.40249ZM3.23658 6.40249L3.40627 6.27186L3.57627 6.40249L3.51033 6.19249L3.67908 6.06405L3.47189 6.06468L3.40627 5.85343L3.34158 6.06468L3.13439 6.06405L3.30221 6.19249L3.23658 6.40249ZM4.46658 6.40249L4.63627 6.27186L4.80627 6.40249L4.74064 6.19249L4.90939 6.06405L4.70002 6.06468L4.63627 5.85343L4.57189 6.06468L4.36314 6.06405L4.53252 6.19249L4.46658 6.40249ZM5.70096 6.40249L5.87096 6.27186L6.04064 6.40249L5.97502 6.19249L6.14408 6.06405L5.93502 6.06468L5.87064 5.85343L5.80627 6.06468L5.59783 6.06405L5.76658 6.19249L5.70096 6.40249ZM1.47221 6.95124L1.64189 6.82093L1.81158 6.95124L1.74627 6.74155L1.91502 6.61249H1.70627L1.64158 6.40249L1.57814 6.61249H1.36877L1.53783 6.74155L1.47221 6.95124ZM2.59564 6.95124L2.76533 6.82093L2.93502 6.95124L2.86939 6.74155L3.03814 6.61249H2.82814L2.76533 6.40249L2.70064 6.61249H2.49221L2.66127 6.74155L2.59564 6.95124ZM3.83471 6.95124L4.00408 6.82093L4.17377 6.95124L4.10814 6.74155L4.27721 6.61249H4.06877L4.00408 6.40249L3.93939 6.61249H3.73064L3.89971 6.74155L3.83471 6.95124ZM5.06408 6.95124L5.23408 6.82093L5.40408 6.95124L5.33752 6.74155L5.50689 6.61249H5.29846L5.23377 6.40249L5.16971 6.61249H4.96096L5.13002 6.74155L5.06408 6.95124ZM6.30002 6.95124L6.46846 6.82093L6.63814 6.95124L6.57189 6.74155L6.74127 6.61249H6.53314L6.46814 6.40249L6.40408 6.61249H6.19533L6.36439 6.74155L6.30002 6.95124ZM6.99596 6.40249L7.16564 6.27186L7.33564 6.40249L7.26971 6.19249L7.43846 6.06405L7.23127 6.06468L7.16533 5.85343L7.10096 6.06468L6.89064 6.06405L7.06158 6.19249L6.99596 6.40249ZM0.857832 7.49999L1.02783 7.36968L1.19752 7.49999L1.13158 7.29061L1.30064 7.16186L1.09189 7.16249L1.02721 6.95124L0.963457 7.16249L0.754395 7.16186L0.923457 7.29061L0.857832 7.49999ZM1.98127 7.49999L2.15096 7.36968L2.32096 7.49999L2.25502 7.29061L2.42377 7.16186L2.21564 7.16249L2.15064 6.95124L2.08658 7.16249L1.87814 7.16186L2.04658 7.29061L1.98127 7.49999ZM3.22033 7.49999L3.39002 7.36968L3.55971 7.49999L3.49408 7.29061L3.66283 7.16186L3.45314 7.16249L3.38971 6.95124L3.32533 7.16249L3.11689 7.16186L3.28596 7.29061L3.22033 7.49999ZM4.45033 7.49999L4.61971 7.36968L4.78971 7.49999L4.72502 7.29061L4.89283 7.16186L4.68408 7.16249L4.61971 6.95124L4.55533 7.16249L4.34689 7.16186L4.51564 7.29061L4.45033 7.49999ZM5.68439 7.49999L5.85439 7.36968L6.02408 7.49999L5.95939 7.29061L6.12721 7.16186L5.91846 7.16249L5.85408 6.95124L5.79002 7.16249L5.58127 7.16186L5.75002 7.29061L5.68439 7.49999ZM1.45564 8.04874L1.62533 7.91874L1.79502 8.04874L1.72971 7.84061L1.89814 7.71124H1.68939L1.62502 7.49999L1.56096 7.71124H1.35221L1.52127 7.84061L1.45564 8.04874ZM2.57908 8.04874L2.74877 7.91874L2.91846 8.04874L2.85283 7.84061L3.02158 7.71124H2.81252L2.74846 7.49999L2.68408 7.71124H2.47533L2.64471 7.84061L2.57908 8.04874ZM3.81846 8.04874L3.98752 7.91874L4.15752 8.04874L4.09064 7.84061L4.26064 7.71124H4.05221L3.98752 7.49999L3.92314 7.71124H3.71439L3.88346 7.84061L3.81846 8.04874ZM5.04689 8.04874L5.21752 7.91874L5.38752 8.04874L5.32189 7.84061L5.49033 7.71124H5.28189L5.21721 7.49999L5.15314 7.71124H4.94439L5.11346 7.84061L5.04689 8.04874ZM6.28127 8.04874L6.45189 7.91874L6.62189 8.04874L6.55596 7.84061L6.72533 7.71124H6.51689L6.45189 7.49999L6.38752 7.71124H6.17877L6.34783 7.84061L6.28127 8.04874ZM6.97939 7.49999L7.14908 7.36968L7.31877 7.49999L7.25314 7.29061L7.42221 7.16186L7.21252 7.16249L7.14877 6.95124L7.08439 7.16249L6.87502 7.16186L7.04502 7.29061L6.97939 7.49999ZM0.857832 8.5978L1.02783 8.46874L1.19752 8.5978L1.13158 8.38811L1.30064 8.25936L1.09189 8.25999L1.02721 8.04874L0.963457 8.25999L0.754395 8.25936L0.923457 8.38811L0.857832 8.5978ZM1.98127 8.5978L2.15096 8.46874L2.32096 8.5978L2.25502 8.38811L2.42377 8.25936L2.21564 8.25999L2.15064 8.04874L2.08658 8.25999L1.87814 8.25936L2.04658 8.38811L1.98127 8.5978ZM3.22033 8.5978L3.39002 8.46874L3.55971 8.5978L3.49408 8.38811L3.66283 8.25936L3.45314 8.25999L3.38971 8.04874L3.32533 8.25999L3.11689 8.25936L3.28596 8.38811L3.22033 8.5978ZM4.45033 8.5978L4.61971 8.46874L4.78971 8.5978L4.72502 8.38811L4.89283 8.25936L4.68408 8.25999L4.61971 8.04874L4.55533 8.25999L4.34689 8.25936L4.51564 8.38811L4.45033 8.5978ZM5.68439 8.5978L5.85439 8.46874L6.02408 8.5978L5.95939 8.38811L6.12721 8.25936L5.91846 8.25999L5.85408 8.04874L5.79002 8.25999L5.58127 8.25936L5.75002 8.38811L5.68439 8.5978ZM1.45564 9.14686L1.62533 9.01624L1.79502 9.14686L1.72971 8.93686L1.89814 8.80936H1.68939L1.62502 8.5978L1.56096 8.80936H1.35221L1.52127 8.93686L1.45564 9.14686ZM2.57908 9.14686L2.74877 9.01624L2.91846 9.14686L2.85283 8.93686L3.02158 8.80936H2.81252L2.74846 8.5978L2.68408 8.80936H2.47533L2.64471 8.93686L2.57908 9.14686ZM3.81846 9.14686L3.98752 9.01624L4.15752 9.14686L4.09064 8.93686L4.26064 8.80936H4.05221L3.98752 8.5978L3.92314 8.80936H3.71439L3.88346 8.93686L3.81846 9.14686ZM5.04689 9.14686L5.21752 9.01624L5.38752 9.14686L5.32189 8.93686L5.49033 8.80936H5.28189L5.21721 8.5978L5.15314 8.80936H4.94439L5.11346 8.93686L5.04689 9.14686ZM6.28127 9.14686L6.45189 9.01624L6.62189 9.14686L6.55596 8.93686L6.72533 8.80936H6.51689L6.45189 8.5978L6.38752 8.80936H6.17877L6.34783 8.93686L6.28127 9.14686ZM6.97939 8.5978L7.14908 8.46874L7.31877 8.5978L7.25314 8.38811L7.42221 8.25936L7.21252 8.25999L7.14877 8.04874L7.08439 8.25999L6.87502 8.25936L7.04502 8.38811L6.97939 8.5978Z" fill="white"/>
</svg>
