<svg width="50" height="50" viewBox="0 0 50 50" fill="none" xmlns="http://www.w3.org/2000/svg">
<path d="M30.8877 24.3471L25.6581 19.1175C30.2481 13.8118 29.9466 5.89509 25.0052 0.954285H25.0006C20.0195 5.93531 19.8102 13.8731 24.3477 19.1175L19.1185 24.3471C13.8731 19.81 5.93537 20.0192 0.954346 25V25.0046C5.94324 29.9939 13.9601 30.2528 19.2657 25.5243L24.481 30.7396C19.8092 35.9825 19.9725 44.0224 25.0007 49.0509H25.0053C29.946 44.1102 30.2489 36.1942 25.6585 30.8877L30.8881 25.6581C36.1938 30.2477 44.1105 29.9463 49.0513 25.0049V25.0002C44.0703 20.0195 36.1325 19.8102 30.8881 24.3474L30.8877 24.3471ZM29.2084 24.8621L25.0027 29.0675L20.9373 25.0025L25.1431 20.7967L29.2084 24.8621Z" fill="#ABB3C7"/>
</svg>
