<svg width="64" height="64" viewBox="0 0 64 64" fill="none" xmlns="http://www.w3.org/2000/svg">
<path d="M30.8584 26.6501C31.337 27.1515 31.337 27.9419 30.8509 28.4508L30.8205 28.4886C30.3873 28.9443 30.3495 29.6129 30.6838 30.1222C30.038 29.8411 29.468 29.3547 29.0806 28.6636C26.1252 23.3604 22.5387 14.7976 26.5884 9.6163C27.5763 8.33986 28.9741 7.53447 30.4634 7.2077C30.4256 7.5877 30.547 7.98271 30.8356 8.27879H30.8431C31.3291 8.78022 31.3291 9.59307 30.8431 10.0945L30.8356 10.1098C30.3341 10.6113 30.3341 11.417 30.8206 11.918L30.8509 11.9409C31.337 12.4498 31.337 13.2477 30.8509 13.749L30.8206 13.7794C30.3345 14.2808 30.3345 15.0712 30.8206 15.5876L30.8509 15.6104C31.337 16.1194 31.337 16.9172 30.8509 17.4186L30.8206 17.449C30.3345 17.9504 30.3345 18.7404 30.8206 19.2572L30.8509 19.2875C31.337 19.789 31.337 20.5868 30.8509 21.0882L30.8206 21.1186C30.3345 21.635 30.3345 22.4254 30.8206 22.9268L30.8509 22.9571C31.337 23.4585 31.337 24.2639 30.8509 24.7653L30.8206 24.7956C30.3345 25.3046 30.3345 26.0949 30.8131 26.5963L30.8584 26.6501Z" fill="#4CA6A8"/>
<path d="M34.9763 28.6633C34.5814 29.3697 33.9963 29.8562 33.3428 30.1297C33.6999 29.6358 33.6617 28.9294 33.2135 28.4812L33.1831 28.4508C32.7046 27.9419 32.7046 27.1515 33.1831 26.6348L33.2289 26.6044C33.7074 26.0951 33.7074 25.3051 33.2289 24.7962L33.1985 24.7659C32.7046 24.2645 32.7046 23.4516 33.1985 22.9502L33.2135 22.9348C33.7074 22.4334 33.7074 21.6206 33.2135 21.1192L33.1985 21.0963C32.7046 20.5949 32.7046 19.7817 33.1985 19.2803L33.2135 19.2574C33.7074 18.756 33.7074 17.9431 33.2135 17.4417L33.1985 17.4264C32.7046 16.9249 32.7046 16.1121 33.1985 15.6107L33.2135 15.5878C33.7074 15.0864 33.7074 14.2732 33.2135 13.7718L33.1985 13.7568C32.7046 13.2554 32.7046 12.4425 33.1985 11.9411L33.2135 11.9182C33.4567 11.675 33.5856 11.3486 33.5856 11.0218C33.5856 10.6797 33.4564 10.3532 33.2057 10.0946C32.7117 9.59321 32.7117 8.78036 33.2057 8.27896C33.4946 7.98253 33.6089 7.58753 33.5707 7.20001C35.0749 7.53429 36.4731 8.33967 37.4682 9.6161C41.5028 14.7979 37.9242 23.3606 34.9764 28.6634L34.9763 28.6633Z" fill="#4CA6A8"/>
<path d="M33.1899 37.3984C32.7113 36.8969 32.7113 36.1066 33.1974 35.5977L33.2278 35.5598C33.661 35.1041 33.6988 34.4355 33.3646 33.9263C34.0103 34.2073 34.5803 34.6938 34.9678 35.3848C37.9231 40.6881 41.5096 49.2509 37.4599 54.4321C36.472 55.7086 35.0742 56.514 33.5849 56.8407C33.6228 56.4607 33.5013 56.0657 33.2128 55.7697H33.2053C32.7192 55.2682 32.7192 54.4554 33.2053 53.954L33.2128 53.9386C33.7142 53.4372 33.7142 52.6315 33.2278 52.1304L33.1974 52.1076C32.7113 51.5986 32.7113 50.8008 33.1974 50.2994L33.2278 50.269C33.7138 49.7676 33.7138 48.9772 33.2278 48.4609L33.1974 48.438C32.7113 47.9291 32.7113 47.1312 33.1974 46.6298L33.2278 46.5995C33.7138 46.098 33.7138 45.308 33.2278 44.7913L33.1974 44.7609C32.7113 44.2595 32.7113 43.4616 33.1974 42.9602L33.2278 42.9299C33.7138 42.4134 33.7138 41.6231 33.2278 41.1217L33.1974 41.0913C32.7113 40.5899 32.7113 39.7845 33.1974 39.2831L33.2278 39.2528C33.7138 38.7439 33.7138 37.9535 33.2353 37.4521L33.1899 37.3984Z" fill="#4CA6A8"/>
<path d="M29.072 35.3851C29.467 34.6787 30.052 34.1923 30.7055 33.9187C30.3484 34.4126 30.3866 35.1191 30.8348 35.5673L30.8652 35.5976C31.3437 36.1065 31.3437 36.8969 30.8652 37.4137L30.8195 37.444C30.3409 37.9533 30.3409 38.7433 30.8195 39.2522L30.8498 39.2825C31.3437 39.784 31.3437 40.5968 30.8498 41.0982L30.8348 41.1136C30.3409 41.615 30.3409 42.4279 30.8348 42.9293L30.8498 42.9521C31.3437 43.4536 31.3437 44.2668 30.8498 44.7682L30.8348 44.791C30.3409 45.2925 30.3409 46.1053 30.8348 46.6067L30.8498 46.6221C31.3437 47.1235 31.3437 47.9364 30.8498 48.4377L30.8348 48.4606C30.3409 48.962 30.3409 49.7753 30.8348 50.2766L30.8498 50.292C31.3437 50.7934 31.3437 51.6063 30.8498 52.1077L30.8348 52.1305C30.5916 52.3738 30.4627 52.7002 30.4627 53.027C30.4627 53.3691 30.592 53.6955 30.8427 53.9541C31.3366 54.4556 31.3366 55.2684 30.8427 55.7698C30.5541 56.0663 30.4398 56.4613 30.478 56.8488C28.9737 56.5145 27.5755 55.7091 26.5805 54.4327C22.5455 49.2505 26.1241 40.6882 29.0719 35.3845L29.072 35.3851Z" fill="#4CA6A8"/>
<path d="M37.3984 30.8585C36.8969 31.3371 36.1066 31.3371 35.5977 30.851L35.5598 30.8207C35.1041 30.3874 34.4355 30.3496 33.9263 30.6839C34.2073 30.0382 34.6938 29.4682 35.3848 29.0807C40.6881 26.1253 49.2509 22.5389 54.4321 26.5885C55.7086 27.5764 56.514 28.9743 56.8407 30.4635C56.4607 30.4257 56.0657 30.5471 55.7697 30.8357V30.8432C55.2682 31.3292 54.4554 31.3292 53.954 30.8432L53.9386 30.8357C53.4372 30.3342 52.6315 30.3342 52.1304 30.8207L52.1076 30.851C51.5986 31.3371 50.8008 31.3371 50.2994 30.851L50.269 30.8207C49.7676 30.3346 48.9772 30.3346 48.4609 30.8207L48.438 30.851C47.9291 31.3371 47.1312 31.3371 46.6298 30.851L46.5995 30.8207C46.098 30.3346 45.308 30.3346 44.7913 30.8207L44.7609 30.851C44.2595 31.3371 43.4616 31.3371 42.9602 30.851L42.9299 30.8207C42.4134 30.3346 41.6231 30.3346 41.1217 30.8207L41.0913 30.851C40.5899 31.3371 39.7845 31.3371 39.2831 30.851L39.2528 30.8207C38.7439 30.3346 37.9535 30.3346 37.4521 30.8132L37.3984 30.8585Z" fill="#4CA6A8"/>
<path d="M35.3851 34.9765C34.6787 34.5815 34.1923 33.9964 33.9187 33.3429C34.4126 33.7001 35.1191 33.6618 35.5673 33.2136L35.5976 33.1833C36.1065 32.7047 36.8969 32.7047 37.4137 33.1833L37.444 33.229C37.9533 33.7076 38.7433 33.7076 39.2522 33.229L39.2825 33.1986C39.784 32.7047 40.5968 32.7047 41.0982 33.1986L41.1136 33.2136C41.615 33.7076 42.4279 33.7076 42.9293 33.2136L42.9521 33.1986C43.4536 32.7047 44.2668 32.7047 44.7682 33.1986L44.791 33.2136C45.2925 33.7076 46.1053 33.7076 46.6067 33.2136L46.6221 33.1986C47.1235 32.7047 47.9363 32.7047 48.4377 33.1986L48.4606 33.2136C48.962 33.7076 49.7753 33.7076 50.2766 33.2136L50.292 33.1986C50.7934 32.7047 51.6063 32.7047 52.1077 33.1986L52.1305 33.2136C52.3738 33.4568 52.7002 33.5858 53.027 33.5858C53.3691 33.5858 53.6955 33.4565 53.9541 33.2058C54.4556 32.7118 55.2684 32.7118 55.7698 33.2058C56.0663 33.4943 56.4613 33.6086 56.8488 33.5704C56.5145 35.0747 55.7091 36.4729 54.4327 37.4679C49.2505 41.5029 40.6882 37.9244 35.3845 34.9765L35.3851 34.9765Z" fill="#4CA6A8"/>
<path d="M26.65 33.1899C27.1514 32.7113 27.9418 32.7113 28.4507 33.1974L28.4886 33.2278C28.9443 33.661 29.6129 33.6988 30.1221 33.3646C29.841 34.0103 29.3546 34.5803 28.6636 34.9678C23.3603 37.9231 14.7975 41.5096 9.61624 37.4599C8.3398 36.472 7.53441 35.0742 7.20764 33.5849C7.58764 33.6228 7.98264 33.5013 8.27873 33.2128V33.2053C8.78016 32.7192 9.59301 32.7192 10.0944 33.2053L10.1098 33.2128C10.6112 33.7142 11.4169 33.7142 11.9179 33.2278L11.9408 33.1974C12.4497 32.7113 13.2476 32.7113 13.749 33.1974L13.7793 33.2278C14.2808 33.7138 15.0711 33.7138 15.5875 33.2278L15.6104 33.1974C16.1193 32.7113 16.9172 32.7113 17.4186 33.1974L17.4489 33.2278C17.9504 33.7138 18.7404 33.7138 19.2571 33.2278L19.2875 33.1974C19.7889 32.7113 20.5868 32.7113 21.0881 33.1974L21.1185 33.2278C21.6349 33.7138 22.4253 33.7138 22.9267 33.2278L22.957 33.1974C23.4585 32.7113 24.2638 32.7113 24.7652 33.1974L24.7956 33.2278C25.3045 33.7138 26.0949 33.7138 26.5963 33.2353L26.65 33.1899Z" fill="#4CA6A8"/>
<path d="M28.6632 29.072C29.3697 29.467 29.8561 30.052 30.1297 30.7056C29.6357 30.3484 28.9293 30.3866 28.4811 30.8349L28.4508 30.8652C27.9418 31.3438 27.1515 31.3438 26.6347 30.8652L26.6044 30.8195C26.0951 30.3409 25.3051 30.3409 24.7962 30.8195L24.7658 30.8499C24.2644 31.3438 23.4515 31.3438 22.9501 30.8499L22.9348 30.8349C22.4334 30.3409 21.6205 30.3409 21.1191 30.8349L21.0962 30.8499C20.5948 31.3438 19.7816 31.3438 19.2802 30.8499L19.2573 30.8349C18.7559 30.3409 17.9431 30.3409 17.4417 30.8349L17.4263 30.8499C16.9249 31.3438 16.112 31.3438 15.6106 30.8499L15.5878 30.8349C15.0863 30.3409 14.2731 30.3409 13.7717 30.8349L13.7567 30.8499C13.2553 31.3438 12.4424 31.3438 11.941 30.8499L11.9182 30.8349C11.675 30.5916 11.3485 30.4627 11.0218 30.4627C10.6796 30.4627 10.3532 30.592 10.0946 30.8427C9.59315 31.3366 8.78029 31.3366 8.2789 30.8427C7.98247 30.5538 7.58747 30.4395 7.19995 30.4777C7.53423 28.9734 8.33961 27.5752 9.61604 26.5802C14.7978 22.5455 23.3605 26.1241 28.6634 29.072L28.6632 29.072Z" fill="#4CA6A8"/>
</svg>
