<svg width="86" height="128" viewBox="0 0 86 128" fill="none" xmlns="http://www.w3.org/2000/svg">
<circle cx="64" cy="64" r="64" fill="white"/>
<circle cx="63.9992" cy="64" r="57.6" fill="#1B1E26"/>
<path d="M62.4009 56.51C63.0709 57.212 63.0709 58.3185 62.3904 59.031L62.3479 59.084C61.7414 59.722 61.6884 60.658 62.1564 61.371C61.2524 60.9775 60.4544 60.2965 59.9119 59.329C55.7744 51.9045 50.7534 39.9165 56.4229 32.6627C57.8059 30.8757 59.7629 29.7482 61.8479 29.2907C61.7949 29.8227 61.9649 30.3757 62.3689 30.7902H62.3794C63.0599 31.4922 63.0599 32.6302 62.3794 33.3322L62.3689 33.3537C61.6669 34.0557 61.6669 35.1837 62.3479 35.8851L62.3904 35.9171C63.0709 36.6296 63.0709 37.7466 62.3904 38.4486L62.3479 38.4911C61.6674 39.1931 61.6674 40.2996 62.3479 41.0226L62.3904 41.0546C63.0709 41.7671 63.0709 42.8841 62.3904 43.586L62.3479 43.6285C61.6674 44.3305 61.6674 45.4365 62.3479 46.16L62.3904 46.2025C63.0709 46.9045 63.0709 48.0215 62.3904 48.7234L62.3479 48.7659C61.6674 49.4889 61.6674 50.5954 62.3479 51.2974L62.3904 51.3399C63.0709 52.0419 63.0709 53.1694 62.3904 53.8713L62.3479 53.9138C61.6674 54.6263 61.6674 55.7328 62.3374 56.4348L62.4009 56.51Z" fill="white"/>
<path d="M68.1653 59.3285C67.6123 60.3175 66.7933 60.9985 65.8784 61.3815C66.3783 60.69 66.3249 59.701 65.6973 59.0735L65.6548 59.031C64.9848 58.3186 64.9848 57.212 65.6548 56.4886L65.7188 56.4461C66.3888 55.7331 66.3888 54.6271 65.7188 53.9146L65.6763 53.8721C64.9849 53.1701 64.9849 52.0321 65.6763 51.3302L65.6973 51.3087C66.3888 50.6067 66.3888 49.4687 65.6973 48.7667L65.6763 48.7347C64.9849 48.0327 64.9849 46.8942 65.6763 46.1923L65.6973 46.1603C66.3888 45.4583 66.3888 44.3203 65.6973 43.6183L65.6763 43.5968C64.9849 42.8948 64.9849 41.7568 65.6763 41.0549L65.6973 41.0229C66.3888 40.3209 66.3888 39.1823 65.6973 38.4804L65.6763 38.4594C64.9849 37.7574 64.9849 36.6194 65.6763 35.9174L65.6973 35.8854C66.0379 35.5449 66.2183 35.0879 66.2183 34.6304C66.2183 34.1514 66.0373 33.6944 65.6864 33.3324C64.9949 32.6304 64.9949 31.4924 65.6864 30.7904C66.0909 30.3754 66.2509 29.8224 66.1974 29.2799C68.3033 29.7479 70.2608 30.8754 71.6539 32.6624C77.3024 39.917 72.2924 51.9047 68.1654 59.3287L68.1653 59.3285Z" fill="white"/>
<path d="M65.6662 71.5577C64.9962 70.8556 64.9962 69.7491 65.6767 69.0367L65.7192 68.9837C66.3257 68.3457 66.3787 67.4097 65.9107 66.6967C66.8147 67.0902 67.6128 67.7712 68.1552 68.7387C72.2927 76.1632 77.3137 88.1512 71.6442 95.4049C70.2612 97.1919 68.3042 98.3195 66.2192 98.777C66.2722 98.245 66.1022 97.692 65.6982 97.2775H65.6877C65.0072 96.5755 65.0072 95.4375 65.6877 94.7355L65.6982 94.714C66.4002 94.012 66.4002 92.884 65.7192 92.1825L65.6767 92.1505C64.9962 91.438 64.9962 90.321 65.6767 89.6191L65.7192 89.5766C66.3997 88.8746 66.3997 87.7681 65.7192 87.0451L65.6767 87.0131C64.9962 86.3006 64.9962 85.1836 65.6767 84.4817L65.7192 84.4392C66.3997 83.7372 66.3997 82.6312 65.7192 81.9077L65.6767 81.8652C64.9962 81.1632 64.9962 80.0462 65.6767 79.3443L65.7192 79.3018C66.3997 78.5788 66.3997 77.4723 65.7192 76.7703L65.6767 76.7278C64.9962 76.0258 64.9962 74.8983 65.6767 74.1963L65.7192 74.1539C66.3997 73.4414 66.3997 72.3348 65.7297 71.6329L65.6662 71.5577Z" fill="white"/>
<path d="M59.8999 68.7391C60.4529 67.7501 61.2719 67.0691 62.1868 66.6861C61.6869 67.3776 61.7403 68.3666 62.3679 68.9941L62.4104 69.0366C63.0804 69.7491 63.0804 70.8556 62.4104 71.579L62.3464 71.6215C61.6763 72.3345 61.6763 73.4405 62.3464 74.153L62.3889 74.1955C63.0803 74.8975 63.0803 76.0355 62.3889 76.7374L62.3679 76.7589C61.6764 77.4609 61.6764 78.5989 62.3679 79.3009L62.3889 79.3329C63.0803 80.0349 63.0803 81.1734 62.3889 81.8754L62.3679 81.9074C61.6764 82.6094 61.6764 83.7474 62.3679 84.4493L62.3889 84.4708C63.0803 85.1728 63.0803 86.3108 62.3889 87.0128L62.3679 87.0448C61.6764 87.7468 61.6764 88.8853 62.3679 89.5872L62.3889 89.6087C63.0803 90.3107 63.0803 91.4487 62.3889 92.1507L62.3679 92.1827C62.0273 92.5232 61.8469 92.9802 61.8469 93.4377C61.8469 93.9167 62.0279 94.3737 62.3788 94.7357C63.0703 95.4377 63.0703 96.5757 62.3788 97.2777C61.9749 97.6927 61.8149 98.2457 61.8683 98.7882C59.7624 98.3202 57.8049 97.1927 56.4118 95.4057C50.7628 88.1506 55.7728 76.1634 59.8998 68.7382L59.8999 68.7391Z" fill="white"/>
<path d="M71.557 62.4019C70.855 63.0719 69.7485 63.0719 69.036 62.3914L68.983 62.3489C68.345 61.7423 67.409 61.6894 66.696 62.1574C67.0895 61.2534 67.7705 60.4553 68.738 59.9129C76.1625 55.7754 88.1505 50.7543 95.4043 56.4238C97.1913 57.8069 98.3188 59.7639 98.7763 61.8489C98.2443 61.7959 97.6913 61.9659 97.2768 62.3699V62.3804C96.5748 63.0609 95.4368 63.0609 94.7348 62.3804L94.7133 62.3699C94.0113 61.6679 92.8833 61.6679 92.1819 62.3489L92.1499 62.3914C91.4374 63.0719 90.3204 63.0719 89.6184 62.3914L89.5759 62.3489C88.8739 61.6684 87.7674 61.6684 87.0445 62.3489L87.0125 62.3914C86.3 63.0719 85.183 63.0719 84.481 62.3914L84.4385 62.3489C83.7365 61.6684 82.6305 61.6684 81.9071 62.3489L81.8646 62.3914C81.1625 63.0719 80.0455 63.0719 79.3436 62.3914L79.3011 62.3489C78.5781 61.6684 77.4716 61.6684 76.7696 62.3489L76.7271 62.3914C76.0251 63.0719 74.8976 63.0719 74.1957 62.3914L74.1532 62.3489C73.4407 61.6684 72.3342 61.6684 71.6322 62.3384L71.557 62.4019Z" fill="white"/>
<path d="M68.7383 68.1669C67.7493 67.6139 67.0683 66.7949 66.6853 65.8799C67.3768 66.3799 68.3658 66.3264 68.9933 65.6989L69.0358 65.6564C69.7483 64.9864 70.8548 64.9864 71.5782 65.6564L71.6207 65.7204C72.3337 66.3904 73.4397 66.3904 74.1522 65.7204L74.1947 65.6779C74.8967 64.9864 76.0347 64.9864 76.7366 65.6779L76.7581 65.6989C77.4601 66.3904 78.5981 66.3904 79.3001 65.6989L79.3321 65.6779C80.0341 64.9864 81.1726 64.9864 81.8746 65.6779L81.9066 65.6989C82.6086 66.3904 83.7466 66.3904 84.4485 65.6989L84.47 65.6779C85.172 64.9864 86.31 64.9864 87.012 65.6779L87.044 65.6989C87.746 66.3904 88.8845 66.3904 89.5864 65.6989L89.6079 65.6779C90.3099 64.9864 91.4479 64.9864 92.1499 65.6779L92.1819 65.6989C92.5224 66.0394 92.9794 66.2199 93.4369 66.2199C93.9159 66.2199 94.3729 66.0389 94.7349 65.6879C95.4369 64.9964 96.5749 64.9964 97.2769 65.6879C97.6919 66.0919 98.2449 66.2519 98.7874 66.1984C98.3194 68.3044 97.1919 70.2619 95.4049 71.655C88.1498 77.304 76.1626 72.294 68.7374 68.167L68.7383 68.1669Z" fill="white"/>
<path d="M56.5094 65.6658C57.2114 64.9958 58.3179 64.9958 59.0303 65.6763L59.0833 65.7188C59.7213 66.3253 60.6573 66.3783 61.3703 65.9103C60.9768 66.8143 60.2958 67.6123 59.3283 68.1548C51.9038 72.2923 39.9158 77.3133 32.6621 71.6438C30.8751 70.2608 29.7475 68.3038 29.29 66.2188C29.822 66.2718 30.375 66.1018 30.7896 65.6978V65.6873C31.4916 65.0068 32.6296 65.0068 33.3315 65.6873L33.353 65.6978C34.055 66.3998 35.183 66.3998 35.8845 65.7188L35.9165 65.6763C36.629 64.9958 37.746 64.9958 38.4479 65.6763L38.4904 65.7188C39.1924 66.3993 40.2989 66.3993 41.0219 65.7188L41.0539 65.6763C41.7664 64.9958 42.8834 64.9958 43.5853 65.6763L43.6278 65.7188C44.3298 66.3993 45.4358 66.3993 46.1593 65.7188L46.2018 65.6763C46.9038 64.9958 48.0208 64.9958 48.7228 65.6763L48.7653 65.7188C49.4882 66.3993 50.5948 66.3993 51.2967 65.7188L51.3392 65.6763C52.0412 64.9958 53.1687 64.9958 53.8707 65.6763L53.9132 65.7188C54.6257 66.3993 55.7322 66.3993 56.4341 65.7293L56.5094 65.6658Z" fill="white"/>
<path d="M59.3279 59.9008C60.3169 60.4538 60.9979 61.2728 61.3809 62.1877C60.6894 61.6877 59.7004 61.7412 59.0729 62.3687L59.0304 62.4112C58.3179 63.0812 57.2114 63.0812 56.488 62.4112L56.4455 62.3472C55.7325 61.6772 54.6265 61.6772 53.914 62.3472L53.8715 62.3897C53.1695 63.0812 52.0315 63.0812 51.3296 62.3897L51.3081 62.3687C50.6061 61.6772 49.4681 61.6772 48.7661 62.3687L48.7341 62.3897C48.0321 63.0812 46.8936 63.0812 46.1916 62.3897L46.1596 62.3687C45.4576 61.6772 44.3196 61.6772 43.6177 62.3687L43.5962 62.3897C42.8942 63.0812 41.7562 63.0812 41.0542 62.3897L41.0222 62.3687C40.3202 61.6772 39.1817 61.6772 38.4798 62.3687L38.4588 62.3897C37.7568 63.0812 36.6188 63.0812 35.9168 62.3897L35.8848 62.3687C35.5443 62.0282 35.0873 61.8477 34.6298 61.8477C34.1508 61.8477 33.6938 62.0287 33.3318 62.3797C32.6298 63.0712 31.4918 63.0712 30.7898 62.3797C30.3748 61.9752 29.8218 61.8152 29.2793 61.8687C29.7473 59.7627 30.8748 57.8052 32.6618 56.4122C39.9164 50.7637 51.9041 55.7737 59.3281 59.9007L59.3279 59.9008Z" fill="white"/>
</svg>
