<svg width="64" height="64" viewBox="0 0 64 64" fill="none" xmlns="http://www.w3.org/2000/svg">
<path d="M44.9575 32.0199C44.9575 22.6924 40.5453 13.939 32.5342 7.3708C32.4892 7.33366 32.4367 7.31294 32.3863 7.28723C32.3674 7.27759 32.3513 7.26437 32.3317 7.25651C32.1456 7.18116 31.9403 7.18116 31.7542 7.25651C31.7342 7.26473 31.7181 7.27794 31.6988 7.28759C31.6488 7.31294 31.5967 7.33366 31.552 7.37044C23.5424 13.9443 19.1315 22.6984 19.1315 32.0205C19.1315 41.3188 23.5219 50.0511 31.4926 56.6185C31.4958 56.6217 31.4994 56.6242 31.5026 56.6274C31.5194 56.6413 31.5348 56.6556 31.5515 56.6695C31.5769 56.6906 31.6076 56.6995 31.6351 56.7167C31.6801 56.7456 31.7226 56.7756 31.7733 56.7945C31.8215 56.8124 31.8715 56.8163 31.9219 56.8245C31.963 56.8309 31.9998 56.8488 32.0426 56.8488C32.0844 56.8488 32.1201 56.8313 32.1601 56.8252C32.2115 56.8174 32.263 56.8127 32.3126 56.7945C32.3623 56.776 32.4037 56.7459 32.448 56.7181C32.4762 56.7006 32.5076 56.6913 32.534 56.6695C32.5515 56.6552 32.5673 56.6402 32.5848 56.6259C32.5873 56.6234 32.5898 56.6217 32.5923 56.6195C40.5655 50.0567 44.9571 41.3244 44.9571 32.0207L44.9575 32.0199ZM20.6814 32.0199C20.6814 23.6756 24.4332 15.8005 31.2688 9.6684V54.3715C24.4334 48.2397 20.6814 40.3646 20.6814 32.0199ZM32.8176 54.3733V9.66657C39.6551 15.7944 43.4087 23.6707 43.4087 32.0199C43.4087 40.3692 39.6558 48.2449 32.8176 54.3733Z" fill="#ABB3C7"/>
<path d="M28.6539 22.7271H24.2643C23.8364 22.7271 23.4896 23.0736 23.4896 23.5018C23.4896 23.93 23.8364 24.2764 24.2643 24.2764H28.6539C29.0818 24.2764 29.4286 23.93 29.4286 23.5018C29.4289 23.0736 29.0818 22.7271 28.6539 22.7271Z" fill="#ABB3C7"/>
<path d="M28.6539 26.9877H24.2643C23.8364 26.9877 23.4896 27.3341 23.4896 27.7624C23.4896 28.1906 23.8364 28.537 24.2643 28.537H28.6539C29.0818 28.537 29.4286 28.1906 29.4286 27.7624C29.4289 27.3341 29.0818 26.9877 28.6539 26.9877Z" fill="#ABB3C7"/>
<path d="M28.6539 31.2483H24.2643C23.8364 31.2483 23.4896 31.5947 23.4896 32.0229C23.4896 32.4512 23.8364 32.7976 24.2643 32.7976H28.6539C29.0818 32.7976 29.4286 32.4512 29.4286 32.0229C29.4289 31.5951 29.0818 31.2483 28.6539 31.2483Z" fill="#ABB3C7"/>
<path d="M28.6539 35.5098H24.2643C23.8364 35.5098 23.4896 35.8562 23.4896 36.2844C23.4896 36.7126 23.8364 37.0591 24.2643 37.0591H28.6539C29.0818 37.0591 29.4286 36.7126 29.4286 36.2844C29.4289 35.8562 29.0818 35.5098 28.6539 35.5098Z" fill="#ABB3C7"/>
<path d="M28.6539 39.7704H24.2643C23.8364 39.7704 23.4896 40.1168 23.4896 40.545C23.4896 40.9732 23.8364 41.3196 24.2643 41.3196H28.6539C29.0818 41.3196 29.4286 40.9732 29.4286 40.545C29.4289 40.1168 29.0818 39.7704 28.6539 39.7704Z" fill="#ABB3C7"/>
<path d="M35.4325 24.2759H39.8225C40.2504 24.2759 40.5972 23.9295 40.5972 23.5013C40.5972 23.0731 40.2504 22.7267 39.8225 22.7267H35.4325C35.0046 22.7267 34.6578 23.0731 34.6578 23.5013C34.6578 23.9295 35.0046 24.2759 35.4325 24.2759Z" fill="#ABB3C7"/>
<path d="M39.8229 26.9877H35.4328C35.005 26.9877 34.6582 27.3341 34.6582 27.7624C34.6582 28.1906 35.005 28.537 35.4328 28.537H39.8229C40.2507 28.537 40.5975 28.1906 40.5975 27.7624C40.5979 27.3341 40.2507 26.9877 39.8229 26.9877Z" fill="#ABB3C7"/>
<path d="M39.8229 31.2483H35.4328C35.005 31.2483 34.6582 31.5947 34.6582 32.0229C34.6582 32.4512 35.005 32.7976 35.4328 32.7976H39.8229C40.2507 32.7976 40.5975 32.4512 40.5975 32.0229C40.5979 31.5951 40.2507 31.2483 39.8229 31.2483Z" fill="#ABB3C7"/>
<path d="M39.8229 35.5098H35.4328C35.005 35.5098 34.6582 35.8562 34.6582 36.2844C34.6582 36.7126 35.005 37.0591 35.4328 37.0591H39.8229C40.2507 37.0591 40.5975 36.7126 40.5975 36.2844C40.5979 35.8562 40.2507 35.5098 39.8229 35.5098Z" fill="#ABB3C7"/>
<path d="M39.8229 39.7704H35.4328C35.005 39.7704 34.6582 40.1168 34.6582 40.545C34.6582 40.9732 35.005 41.3196 35.4328 41.3196H39.8229C40.2507 41.3196 40.5975 40.9732 40.5975 40.545C40.5979 40.1168 40.2507 39.7704 39.8229 39.7704Z" fill="#ABB3C7"/>
</svg>
